<svg id="Calque_1" data-name="Calque 1" xmlns="http://www.w3.org/2000/svg" viewBox="0 0 412 170.08"><defs><style>.cls-1{fill:#e42527;}.cls-2{fill:#414142;}</style></defs><title>logo SCVS a3</title><path class="cls-1" d="M688.22,401.89c-1.11-5.13,1-9.15,12.4-16.7,10-6.62,6.59-28.07,3.54-32.23-2.22,9.7-9.84,15-19.27,24s.42,24.26,3.33,24.95" transform="translate(-477.16 -299.38)"/><path class="cls-1" d="M676.43,386c2.64-14.42,21.21-19.55,26.55-40,4.93-18.89-21.9-31-16.77-46.58-17.33,14.56-7.9,24.37.14,41,7.62,15.81-15.46,33.34-9.92,45.54" transform="translate(-477.16 -299.38)"/><path class="cls-1" d="M674.42,333.2c7.63,5.13,11.41,18.41,1,34.17s3.12,32.23,3.12,32.23-21.07-9.84-20.37-29,19.13-17.46,16.21-37.43" transform="translate(-477.16 -299.38)"/><path class="cls-2" d="M499.46,423.63a.61.61,0,0,1,.69.7v3a.62.62,0,0,1-.69.7h-15.8a1.54,1.54,0,0,0-1.29.47,2,2,0,0,0-.38,1.29v1.07c0,1.18.55,1.77,1.64,1.77h11.82a5.58,5.58,0,0,1,4.13,1.4,5.47,5.47,0,0,1,1.39,4v2.53a5.19,5.19,0,0,1-1.35,3.72,5.65,5.65,0,0,1-4.23,1.42H477.92a.63.63,0,0,1-.72-.7v-3a.63.63,0,0,1,.72-.7h16.56a1.59,1.59,0,0,0,1.29-.47,2,2,0,0,0,.38-1.29v-1.3c0-1.17-.55-1.76-1.64-1.76H482.68a5.56,5.56,0,0,1-4.13-1.41,5.48,5.48,0,0,1-1.39-4v-2.3a5.19,5.19,0,0,1,1.36-3.72,5.62,5.62,0,0,1,4.23-1.42Z" transform="translate(-477.16 -299.38)"/><path class="cls-2" d="M517.34,423.63a4,4,0,0,1,2,.49A5,5,0,0,1,521,426l10.44,19a.64.64,0,0,1,.08.52c-.05.14-.21.2-.46.2h-4a.73.73,0,0,1-.73-.4l-2.24-4.07H509.23l-2.17,4.07a.76.76,0,0,1-.73.4h-4.1c-.27,0-.43-.06-.49-.2a.69.69,0,0,1,.08-.52l10.35-19a5.32,5.32,0,0,1,1.54-1.91,3.24,3.24,0,0,1,1.77-.49Zm-6.12,13.94h10.85l-5-9.24a.37.37,0,0,0-.34-.22h-.19a.38.38,0,0,0-.35.22Z" transform="translate(-477.16 -299.38)"/><path class="cls-2" d="M551.3,423.63c2.41,0,4.15.55,5.2,1.64a6.77,6.77,0,0,1,1.58,4.86v2.33a6.75,6.75,0,0,1-1.58,4.86c-1,1.09-2.79,1.64-5.2,1.64H538.24V445a.62.62,0,0,1-.69.7h-3.41a.63.63,0,0,1-.72-.7V424.58a.84.84,0,0,1,.94-.95ZM538.24,434.8h12.08a3.07,3.07,0,0,0,2.27-.7,3,3,0,0,0,.66-2.11v-1.2a3,3,0,0,0-.66-2.11,3.07,3.07,0,0,0-2.27-.7H538.65c-.27,0-.41.13-.41.38Z" transform="translate(-477.16 -299.38)"/><path class="cls-2" d="M583,423.63a.63.63,0,0,1,.72.7v3a.63.63,0,0,1-.72.7H569.21a8.36,8.36,0,0,0-2,.2,2.86,2.86,0,0,0-1.29.69,2.68,2.68,0,0,0-.68,1.33,9.9,9.9,0,0,0-.19,2.06v.32h17.82a.61.61,0,0,1,.69.69v2.49a.61.61,0,0,1-.69.7H565V437a10,10,0,0,0,.19,2.07,2.6,2.6,0,0,0,.68,1.32,2.78,2.78,0,0,0,1.29.7,8.88,8.88,0,0,0,2,.2H583a.63.63,0,0,1,.72.7v3a.63.63,0,0,1-.72.7H569.11a15.81,15.81,0,0,1-4.06-.45,6.14,6.14,0,0,1-2.73-1.43,5.75,5.75,0,0,1-1.55-2.59,13.48,13.48,0,0,1-.49-3.86V432a13.31,13.31,0,0,1,.49-3.85,5.79,5.79,0,0,1,1.55-2.57,6.27,6.27,0,0,1,2.73-1.45,15.77,15.77,0,0,1,4.06-.46Z" transform="translate(-477.16 -299.38)"/><path class="cls-2" d="M590.74,423.63a.62.62,0,0,1,.7.7v12.58a9.46,9.46,0,0,0,.2,2.1,2.86,2.86,0,0,0,.68,1.32,2.56,2.56,0,0,0,1.28.69,8.16,8.16,0,0,0,2,.21h8.74a8.21,8.21,0,0,0,2-.21,2.56,2.56,0,0,0,1.28-.69,2.84,2.84,0,0,0,.66-1.32,10.17,10.17,0,0,0,.19-2.1V424.33a.61.61,0,0,1,.69-.7h3.44a.61.61,0,0,1,.69.7v13.05a13.9,13.9,0,0,1-.47,3.86,5.72,5.72,0,0,1-1.53,2.59,6.18,6.18,0,0,1-2.74,1.43,16.11,16.11,0,0,1-4.09.45h-9.08a15.89,15.89,0,0,1-4.07-.45,6.16,6.16,0,0,1-2.72-1.43,5.75,5.75,0,0,1-1.55-2.59,13.48,13.48,0,0,1-.49-3.86V424.33c0-.47.24-.7.73-.7Z" transform="translate(-477.16 -299.38)"/><path class="cls-2" d="M634.7,423.63q3.63,0,5.2,1.64a6.77,6.77,0,0,1,1.58,4.86v1.8a7.39,7.39,0,0,1-1.1,4.28,5.25,5.25,0,0,1-3.6,2l5.39,6.69a.48.48,0,0,1,.1.47c0,.21-.21.31-.51.31H637.7a1.23,1.23,0,0,1-.57-.09,1.15,1.15,0,0,1-.32-.31l-5-6.56H621.65V445a.62.62,0,0,1-.7.69h-3.4c-.49,0-.73-.23-.73-.69V424.58a.84.84,0,0,1,.95-.95Zm-13.05,11.26h12.07a3.07,3.07,0,0,0,2.27-.69,3,3,0,0,0,.66-2.12v-1.32a3,3,0,0,0-.66-2.11,3,3,0,0,0-2.27-.7H622.06c-.28,0-.41.13-.41.38Z" transform="translate(-477.16 -299.38)"/><path class="cls-2" d="M666.26,423.63a.62.62,0,0,1,.7.7v3a.62.62,0,0,1-.7.7H650.47a1.58,1.58,0,0,0-1.3.47,2,2,0,0,0-.37,1.29v1.07c0,1.18.54,1.77,1.64,1.77h11.82a5.58,5.58,0,0,1,4.13,1.4,5.47,5.47,0,0,1,1.39,4v2.53a5.15,5.15,0,0,1-1.36,3.72,5.61,5.61,0,0,1-4.22,1.42H644.73c-.49,0-.73-.24-.73-.7v-3c0-.47.24-.7.73-.7h16.55a1.61,1.61,0,0,0,1.3-.47,2,2,0,0,0,.37-1.29v-1.3c0-1.17-.54-1.76-1.64-1.76H649.49a5.54,5.54,0,0,1-4.13-1.41,5.44,5.44,0,0,1-1.39-4v-2.3a5.15,5.15,0,0,1,1.36-3.72,5.61,5.61,0,0,1,4.22-1.42Z" transform="translate(-477.16 -299.38)"/><rect class="cls-2" x="192.16" y="133.77" width="10.63" height="3.41" rx="0.57"/><path class="cls-2" d="M700,423.63q3.63,0,5.2,1.64a6.72,6.72,0,0,1,1.58,4.86v2.33a6.71,6.71,0,0,1-1.58,4.86Q703.6,439,700,439H686.92V445a.62.62,0,0,1-.7.7h-3.4c-.49,0-.73-.24-.73-.7V424.58a.84.84,0,0,1,.95-.95ZM686.92,434.8H699a3,3,0,0,0,2.27-.7,2.92,2.92,0,0,0,.67-2.11v-1.2a2.91,2.91,0,0,0-.67-2.11A3,3,0,0,0,699,428H687.33c-.28,0-.41.13-.41.38Z" transform="translate(-477.16 -299.38)"/><path class="cls-2" d="M727.53,423.63a15.63,15.63,0,0,1,4.09.46,6.36,6.36,0,0,1,2.74,1.45,5.76,5.76,0,0,1,1.53,2.57,13.73,13.73,0,0,1,.47,3.85v5.42a13.9,13.9,0,0,1-.47,3.86,5.78,5.78,0,0,1-1.53,2.59,6.23,6.23,0,0,1-2.74,1.43,16.15,16.15,0,0,1-4.09.44h-9.74a15.87,15.87,0,0,1-4.07-.44,6.25,6.25,0,0,1-2.73-1.43,5.79,5.79,0,0,1-1.54-2.59,13.13,13.13,0,0,1-.49-3.86V432a13,13,0,0,1,.49-3.85,5.78,5.78,0,0,1,1.54-2.57,6.38,6.38,0,0,1,2.73-1.45,15.37,15.37,0,0,1,4.07-.46ZM713.78,437a8.68,8.68,0,0,0,.21,2.07,2.76,2.76,0,0,0,.68,1.32,2.62,2.62,0,0,0,1.27.7,8.88,8.88,0,0,0,2,.2h9.36a8.88,8.88,0,0,0,2-.2,2.62,2.62,0,0,0,1.27-.7,2.76,2.76,0,0,0,.68-1.32,8.68,8.68,0,0,0,.21-2.07V432.3a8.59,8.59,0,0,0-.21-2.06,2.85,2.85,0,0,0-.68-1.33,2.69,2.69,0,0,0-1.27-.69,8.36,8.36,0,0,0-2-.2H718a8.36,8.36,0,0,0-2,.2,2.69,2.69,0,0,0-1.27.69,2.85,2.85,0,0,0-.68,1.33,8.59,8.59,0,0,0-.21,2.06Z" transform="translate(-477.16 -299.38)"/><path class="cls-2" d="M745.85,423.63a6,6,0,0,1,1.2.1,2.1,2.1,0,0,1,.88.36,2.67,2.67,0,0,1,.68.73,7.83,7.83,0,0,1,.62,1.21l6.55,15.13a.47.47,0,0,0,.45.29h.37a.47.47,0,0,0,.45-.29L763.6,426a7,7,0,0,1,.62-1.21,2.52,2.52,0,0,1,.68-.73,2.13,2.13,0,0,1,.86-.36,5.81,5.81,0,0,1,1.19-.1h3.37a2.69,2.69,0,0,1,2.21.74,4.29,4.29,0,0,1,.57,2.54V445a.64.64,0,0,1-.73.7h-3.22a.62.62,0,0,1-.69-.7V428.55c0-.21-.08-.31-.25-.31h-.29a.39.39,0,0,0-.41.25l-6.37,14.13a9.81,9.81,0,0,1-.77,1.43,4.22,4.22,0,0,1-.85,1,2.79,2.79,0,0,1-1,.54,5.54,5.54,0,0,1-1.37.16h-1.52a5.54,5.54,0,0,1-1.37-.16,2.87,2.87,0,0,1-1-.54,4.48,4.48,0,0,1-.85-1,9.81,9.81,0,0,1-.77-1.43l-6.37-14.13a.39.39,0,0,0-.41-.25h-.28c-.17,0-.26.1-.26.31V445a.62.62,0,0,1-.69.7h-3.22a.63.63,0,0,1-.72-.7v-18.1a4.29,4.29,0,0,1,.57-2.54,2.69,2.69,0,0,1,2.23-.74Z" transform="translate(-477.16 -299.38)"/><path class="cls-2" d="M794.47,423.63q3.63,0,5.21,1.64a6.77,6.77,0,0,1,1.57,4.86v2.33a6.75,6.75,0,0,1-1.57,4.86q-1.57,1.64-5.21,1.64H781.42V445a.62.62,0,0,1-.69.7h-3.41a.64.64,0,0,1-.73-.7V424.58a.84.84,0,0,1,.95-.95ZM781.42,434.8H793.5a3.08,3.08,0,0,0,2.27-.7,3,3,0,0,0,.66-2.11v-1.2a3,3,0,0,0-.66-2.11,3.08,3.08,0,0,0-2.27-.7H781.83c-.27,0-.41.13-.41.38Z" transform="translate(-477.16 -299.38)"/><path class="cls-2" d="M807.84,423.63a.62.62,0,0,1,.7.7V445a.62.62,0,0,1-.7.7h-3.4c-.49,0-.73-.24-.73-.7V424.33c0-.47.24-.7.73-.7Z" transform="translate(-477.16 -299.38)"/><path class="cls-2" d="M834.52,423.63c.48,0,.73.23.73.7v3a.64.64,0,0,1-.73.7H820.74a8.22,8.22,0,0,0-2,.2,2.85,2.85,0,0,0-1.3.69,2.67,2.67,0,0,0-.67,1.33,9.26,9.26,0,0,0-.19,2.06v.32h17.81a.61.61,0,0,1,.7.69v2.49a.62.62,0,0,1-.7.7H816.55V437a9.35,9.35,0,0,0,.19,2.07,2.59,2.59,0,0,0,.67,1.32,2.77,2.77,0,0,0,1.3.7,8.73,8.73,0,0,0,2,.2h13.78c.48,0,.73.23.73.7v3a.64.64,0,0,1-.73.7H820.65a15.83,15.83,0,0,1-4.07-.45,6.14,6.14,0,0,1-2.73-1.43,5.74,5.74,0,0,1-1.54-2.59,13.13,13.13,0,0,1-.49-3.86V432a13,13,0,0,1,.49-3.85,5.78,5.78,0,0,1,1.54-2.57,6.27,6.27,0,0,1,2.73-1.45,15.79,15.79,0,0,1,4.07-.46Z" transform="translate(-477.16 -299.38)"/><path class="cls-2" d="M856.09,423.63q3.63,0,5.2,1.64a6.77,6.77,0,0,1,1.58,4.86v1.8a7.32,7.32,0,0,1-1.11,4.28,5.2,5.2,0,0,1-3.59,2l5.39,6.69a.48.48,0,0,1,.1.47c0,.21-.21.31-.51.31h-4.07a1.21,1.21,0,0,1-.56-.09,1.15,1.15,0,0,1-.32-.31l-5-6.56H843V445a.61.61,0,0,1-.69.69h-3.41q-.72,0-.72-.69V424.58a.84.84,0,0,1,.95-.95ZM843,434.89h12.08a3.07,3.07,0,0,0,2.27-.69,3,3,0,0,0,.66-2.12v-1.32a3,3,0,0,0-.66-2.11,3,3,0,0,0-2.27-.7H843.44c-.27,0-.41.13-.41.38Z" transform="translate(-477.16 -299.38)"/><path class="cls-2" d="M887.65,423.63a.62.62,0,0,1,.7.7v3a.62.62,0,0,1-.7.7H871.86a1.56,1.56,0,0,0-1.3.47,2,2,0,0,0-.38,1.29v1.07c0,1.18.55,1.77,1.64,1.77h11.83a5.59,5.59,0,0,1,4.13,1.4,5.51,5.51,0,0,1,1.39,4v2.53a5.19,5.19,0,0,1-1.36,3.72,5.61,5.61,0,0,1-4.22,1.42H866.12c-.49,0-.73-.24-.73-.7v-3c0-.47.24-.7.73-.7h16.55a1.57,1.57,0,0,0,1.29-.47,2,2,0,0,0,.38-1.29v-1.3c0-1.17-.54-1.76-1.64-1.76H870.88a5.54,5.54,0,0,1-4.13-1.41,5.44,5.44,0,0,1-1.39-4v-2.3a5.15,5.15,0,0,1,1.36-3.72,5.61,5.61,0,0,1,4.22-1.42Z" transform="translate(-477.16 -299.38)"/><path class="cls-2" d="M543,456.69a2.43,2.43,0,0,0-.9-.78,2.67,2.67,0,0,0-1.31-.3,2.82,2.82,0,0,0-.8.12,2.5,2.5,0,0,0-.75.37,1.9,1.9,0,0,0-.53.63,1.8,1.8,0,0,0-.21.89,1.64,1.64,0,0,0,.2.85,1.88,1.88,0,0,0,.52.57,2.87,2.87,0,0,0,.74.38c.28.11.56.21.87.31l1.12.39a4.15,4.15,0,0,1,1,.55,2.58,2.58,0,0,1,1,2.19,3,3,0,0,1-.31,1.39,3.08,3.08,0,0,1-.79,1,3.37,3.37,0,0,1-1.12.56,4.57,4.57,0,0,1-1.26.18,4.5,4.5,0,0,1-1-.1,4.79,4.79,0,0,1-.93-.29,4.2,4.2,0,0,1-.81-.5,3.69,3.69,0,0,1-.67-.7l.94-.7a2.8,2.8,0,0,0,2.45,1.35,2.71,2.71,0,0,0,.83-.13,2.33,2.33,0,0,0,.77-.39,2.5,2.5,0,0,0,.56-.65,1.87,1.87,0,0,0,.22-.9,1.83,1.83,0,0,0-.22-.93,2,2,0,0,0-.59-.63,3.78,3.78,0,0,0-.83-.41l-1-.33c-.36-.12-.7-.24-1-.38a3.68,3.68,0,0,1-.92-.55,2.74,2.74,0,0,1-.66-.84,2.87,2.87,0,0,1-.25-1.23,2.75,2.75,0,0,1,.31-1.33,2.92,2.92,0,0,1,.81-.93,3.45,3.45,0,0,1,1.11-.53,4.48,4.48,0,0,1,1.19-.16,4.19,4.19,0,0,1,1.86.38,3.22,3.22,0,0,1,1.17.92Z" transform="translate(-477.16 -299.38)"/><path class="cls-2" d="M550.41,464.71h5.74v1h-6.83V455H556v1h-5.55v3.68h5.19v1h-5.19Zm2.39-10.6h-.89l1.51-2.18h1.38Z" transform="translate(-477.16 -299.38)"/><path class="cls-2" d="M570.33,463.94a4.28,4.28,0,0,1-.66.77,4.6,4.6,0,0,1-.89.64,5.33,5.33,0,0,1-1.12.44,5.91,5.91,0,0,1-3.58-.27,5.16,5.16,0,0,1-1.77-1.17,5.28,5.28,0,0,1-1.16-1.78,5.85,5.85,0,0,1-.42-2.25,5.76,5.76,0,0,1,.43-2.26,5.28,5.28,0,0,1,2.94-2.95,5.77,5.77,0,0,1,2.22-.42,5.64,5.64,0,0,1,1.16.12,5.27,5.27,0,0,1,1.06.35,4.26,4.26,0,0,1,.91.53,3.25,3.25,0,0,1,.68.71l-.91.66a2.86,2.86,0,0,0-.44-.51,3.19,3.19,0,0,0-.66-.45,3.82,3.82,0,0,0-1.79-.44,4.49,4.49,0,0,0-1.87.37,4.22,4.22,0,0,0-1.4,1,4.43,4.43,0,0,0-.87,1.49,5,5,0,0,0-.31,1.78,5.33,5.33,0,0,0,.31,1.78,4.43,4.43,0,0,0,.89,1.48,4.12,4.12,0,0,0,1.4,1,4.43,4.43,0,0,0,1.85.38,4.25,4.25,0,0,0,1.76-.38,3.28,3.28,0,0,0,1.39-1.21Z" transform="translate(-477.16 -299.38)"/><path class="cls-2" d="M579.18,466a4.12,4.12,0,0,1-2-.42,3.73,3.73,0,0,1-1.23-1,3.81,3.81,0,0,1-.62-1.38,6.14,6.14,0,0,1-.18-1.42V455h1.09v6.6a5.3,5.3,0,0,0,.15,1.26,3.28,3.28,0,0,0,.49,1.09,2.45,2.45,0,0,0,.91.77,3.3,3.3,0,0,0,2.75,0,2.5,2.5,0,0,0,.9-.77,3.09,3.09,0,0,0,.49-1.09,5.3,5.3,0,0,0,.15-1.26V455h1.09v6.72a6.1,6.1,0,0,1-.17,1.42,4,4,0,0,1-.63,1.38,3.54,3.54,0,0,1-1.23,1,4.15,4.15,0,0,1-2,.42" transform="translate(-477.16 -299.38)"/><path class="cls-2" d="M590.09,465.68H589V455h3.15a6.68,6.68,0,0,1,1.46.15,3.44,3.44,0,0,1,1.17.49,2.34,2.34,0,0,1,.76.89,2.84,2.84,0,0,1,.28,1.33,2.5,2.5,0,0,1-.22,1.07,2.65,2.65,0,0,1-.57.85,2.84,2.84,0,0,1-.86.56,3.88,3.88,0,0,1-1.09.28l3.13,5.1h-1.33l-3-5h-1.82Zm0-5.95H592a3.59,3.59,0,0,0,2-.48,1.6,1.6,0,0,0,.72-1.43,1.86,1.86,0,0,0-.2-.89,1.56,1.56,0,0,0-.55-.59,2.68,2.68,0,0,0-.84-.34,5.45,5.45,0,0,0-1.11-.1h-1.94Z" transform="translate(-477.16 -299.38)"/><rect class="cls-2" x="123.93" y="155.58" width="1.09" height="10.72"/><polygon class="cls-2" points="134.33 166.29 133.24 166.29 133.24 156.55 129.66 156.55 129.66 155.58 137.92 155.58 137.92 156.55 134.33 156.55 134.33 166.29"/><path class="cls-2" d="M620.8,464.71h5.74v1h-6.82V455h6.64v1H620.8v3.68H626v1h-5.2Zm2.4-10.6h-.9l1.52-2.18h1.37Z" transform="translate(-477.16 -299.38)"/><path class="cls-2" d="M647.53,463.94a4.21,4.21,0,0,1-1.55,1.41,5.13,5.13,0,0,1-1.12.44,5.59,5.59,0,0,1-1.34.16,5.73,5.73,0,0,1-2.24-.43,5.36,5.36,0,0,1-1.77-1.17,5.43,5.43,0,0,1-1.16-1.78,6,6,0,0,1-.41-2.25,5.94,5.94,0,0,1,.42-2.26,5.43,5.43,0,0,1,1.18-1.78,5.26,5.26,0,0,1,1.77-1.17,5.76,5.76,0,0,1,2.21-.42,5.57,5.57,0,0,1,1.16.12,5.16,5.16,0,0,1,1.07.35,4.81,4.81,0,0,1,.91.53,3.25,3.25,0,0,1,.68.71l-.91.66a2.57,2.57,0,0,0-.45-.51,2.87,2.87,0,0,0-.65-.45,3.76,3.76,0,0,0-.83-.32,3.71,3.71,0,0,0-1-.12,4.46,4.46,0,0,0-1.87.37,4.12,4.12,0,0,0-1.4,1,4.45,4.45,0,0,0-.88,1.49,5.24,5.24,0,0,0-.3,1.78,5.09,5.09,0,0,0,.31,1.78,4.58,4.58,0,0,0,.88,1.48,4.22,4.22,0,0,0,1.4,1,4.45,4.45,0,0,0,1.86.38,4.21,4.21,0,0,0,1.75-.38,3.3,3.3,0,0,0,1.4-1.21Z" transform="translate(-477.16 -299.38)"/><polygon class="cls-2" points="175.27 155.58 176.36 155.58 176.36 160.22 182.21 160.22 182.21 155.58 183.29 155.58 183.29 166.29 182.21 166.29 182.21 161.22 176.36 161.22 176.36 166.29 175.27 166.29 175.27 155.58"/><path class="cls-2" d="M666.26,465.68h-1.2L669.69,455h1.06l4.6,10.72h-1.21L673,462.86h-5.54Zm1.57-3.82h4.72l-2.36-5.69Z" transform="translate(-477.16 -299.38)"/><path class="cls-2" d="M680,455h3.2a5.69,5.69,0,0,1,1.22.13,3.16,3.16,0,0,1,1.12.44,2.39,2.39,0,0,1,.8.84,2.64,2.64,0,0,1,.31,1.33,2.25,2.25,0,0,1-.52,1.48,2.46,2.46,0,0,1-1.38.82v0a2.84,2.84,0,0,1,1.73.81,2.56,2.56,0,0,1,.68,1.87,2.64,2.64,0,0,1-1.07,2.16,3.92,3.92,0,0,1-1.25.59,5.75,5.75,0,0,1-1.66.22H680Zm1.09,4.69h2.2a3.55,3.55,0,0,0,.79-.09,2.2,2.2,0,0,0,.74-.31,1.64,1.64,0,0,0,.53-.58,1.75,1.75,0,0,0,.21-.89,1.71,1.71,0,0,0-.21-.88,1.69,1.69,0,0,0-.55-.58,2.25,2.25,0,0,0-.81-.32,4.65,4.65,0,0,0-1-.1H681Zm0,5.09h2a5.15,5.15,0,0,0,1.13-.12,2.71,2.71,0,0,0,.94-.36,1.9,1.9,0,0,0,.64-.65,1.85,1.85,0,0,0,.24-1,1.82,1.82,0,0,0-.72-1.58,3.38,3.38,0,0,0-2-.53H681Z" transform="translate(-477.16 -299.38)"/><polygon class="cls-2" points="216.53 165.32 221.53 165.32 221.53 166.29 215.44 166.29 215.44 155.58 216.53 155.58 216.53 165.32"/><path class="cls-2" d="M703.28,465.68h-1.2L706.71,455h1.06l4.6,10.72h-1.21L710,462.86h-5.54Zm1.57-3.82h4.72l-2.36-5.69Z" transform="translate(-477.16 -299.38)"/><rect class="cls-2" x="239.81" y="155.58" width="1.09" height="10.72"/><path class="cls-2" d="M729.13,456.69a2.48,2.48,0,0,0-.89-.78,2.74,2.74,0,0,0-1.32-.3,2.82,2.82,0,0,0-.8.12,2.34,2.34,0,0,0-.74.37,1.85,1.85,0,0,0-.75,1.52,1.64,1.64,0,0,0,.2.85,1.88,1.88,0,0,0,.52.57,2.87,2.87,0,0,0,.74.38c.28.11.57.21.87.31s.75.25,1.12.39a4.15,4.15,0,0,1,1,.55,2.58,2.58,0,0,1,1,2.19,2.88,2.88,0,0,1-.31,1.39,3.08,3.08,0,0,1-.79,1,3.37,3.37,0,0,1-1.12.56,4.57,4.57,0,0,1-1.26.18,4.5,4.5,0,0,1-1-.1,5,5,0,0,1-.93-.29,4.2,4.2,0,0,1-.81-.5,4,4,0,0,1-.67-.7l.94-.7a2.84,2.84,0,0,0,2.45,1.35,2.71,2.71,0,0,0,.83-.13,2.22,2.22,0,0,0,1.33-1,1.77,1.77,0,0,0,.22-.9,1.73,1.73,0,0,0-.22-.93,2.05,2.05,0,0,0-.58-.63,3.86,3.86,0,0,0-.84-.41l-1-.33c-.35-.12-.7-.24-1-.38a3.74,3.74,0,0,1-.93-.55,2.74,2.74,0,0,1-.66-.84,2.87,2.87,0,0,1-.25-1.23,2.75,2.75,0,0,1,.31-1.33,2.92,2.92,0,0,1,.81-.93,3.55,3.55,0,0,1,1.11-.53,4.5,4.5,0,0,1,1.2-.16,4.26,4.26,0,0,1,1.86.38A3.26,3.26,0,0,1,730,456Z" transform="translate(-477.16 -299.38)"/><rect class="cls-2" x="264.95" y="154.94" width="0.91" height="15.14"/><polygon class="cls-1" points="281.36 164.89 281.39 164.89 284.87 155.58 286.04 155.58 281.93 166.29 280.78 166.29 276.7 155.58 277.88 155.58 281.36 164.89"/><path class="cls-1" d="M767.17,465.68H766L770.6,455h1.06l4.6,10.72h-1.21l-1.18-2.82h-5.54Zm1.57-3.82h4.72l-2.36-5.69Z" transform="translate(-477.16 -299.38)"/><polygon class="cls-1" points="304.79 165.32 309.78 165.32 309.78 166.29 303.7 166.29 303.7 155.58 304.79 155.58 304.79 165.32"/><path class="cls-1" d="M791.53,465.68h-1.19L795,455H796l4.6,10.72h-1.21l-1.18-2.82H792.7Zm1.58-3.82h4.72l-2.36-5.69Z" transform="translate(-477.16 -299.38)"/><rect class="cls-1" x="328.07" y="155.58" width="1.09" height="10.72"/><path class="cls-1" d="M817.38,456.69a2.4,2.4,0,0,0-.89-.78,2.68,2.68,0,0,0-1.32-.3,2.88,2.88,0,0,0-.8.12,2.45,2.45,0,0,0-.74.37,2.06,2.06,0,0,0-.54.63,1.92,1.92,0,0,0-.2.89,1.55,1.55,0,0,0,.2.85,1.88,1.88,0,0,0,.52.57,2.72,2.72,0,0,0,.74.38c.27.11.56.21.86.31s.75.25,1.13.39a4.15,4.15,0,0,1,1,.55,2.54,2.54,0,0,1,1,2.19,3,3,0,0,1-.3,1.39,3.11,3.11,0,0,1-.8,1,3.32,3.32,0,0,1-1.11.56,4.58,4.58,0,0,1-1.27.18,4.63,4.63,0,0,1-1-.1,4.69,4.69,0,0,1-.92-.29,4.61,4.61,0,0,1-.82-.5,4,4,0,0,1-.66-.7l.94-.7a2.71,2.71,0,0,0,1,1,2.75,2.75,0,0,0,1.48.39,2.71,2.71,0,0,0,.83-.13,2.28,2.28,0,0,0,.76-.39,2.18,2.18,0,0,0,.56-.65,1.77,1.77,0,0,0,.22-.9,1.73,1.73,0,0,0-.22-.93,1.94,1.94,0,0,0-.58-.63,3.78,3.78,0,0,0-.83-.41l-1-.33c-.36-.12-.71-.24-1-.38a3.68,3.68,0,0,1-.92-.55,2.52,2.52,0,0,1-.91-2.07,2.64,2.64,0,0,1,.31-1.33,2.92,2.92,0,0,1,.81-.93,3.4,3.4,0,0,1,1.1-.53,4.61,4.61,0,0,1,1.2-.16,4.19,4.19,0,0,1,1.86.38,3.22,3.22,0,0,1,1.17.92Z" transform="translate(-477.16 -299.38)"/></svg>