<?xml version="1.0" standalone="no"?>
<!DOCTYPE svg PUBLIC "-//W3C//DTD SVG 1.1//EN" "http://www.w3.org/Graphics/SVG/1.1/DTD/svg11.dtd" >
<svg xmlns="http://www.w3.org/2000/svg">
<metadata>
<json>
<![CDATA[
{
	"fontFamily": "lodur-minimalistic-icons",
	"description": "Font generated by IcoMoon.",
	"majorVersion": 1,
	"minorVersion": 0,
	"version": "Version 1.0",
	"fontId": "lodur-minimalistic-icons",
	"psName": "lodur-minimalistic-icons",
	"subFamily": "Regular",
	"fullName": "lodur-minimalistic-icons"
}
]]>
</json>
</metadata>
<defs>
<font id="lodur-minimalistic-icons" horiz-adv-x="1024">
<font-face units-per-em="1024" ascent="960" descent="-64" />
<missing-glyph horiz-adv-x="1024" />
<glyph unicode="&#x20;" horiz-adv-x="0" d="" />
<glyph unicode="&#x21;" glyph-name="f-deselected" data-tags="f-deselected" d="M476 928c-4-2-12-2-20-2-212-20-390-186-424-396-6-30-8-48-8-82 0-44 4-78 14-118 48-184 198-324 386-356 174-28 350 40 460 180 54 70 88 154 98 246 2 20 2 76 0 96-14 132-78 246-180 328-70 56-152 90-244 100-14 2-72 4-82 4zM540 850c54-4 92-16 146-42 42-22 68-40 104-76 34-34 52-60 74-102 28-54 38-92 42-148 4-44 0-102-10-136-12-42-34-90-60-128-22-32-70-80-102-102-36-24-86-48-128-60-34-10-92-14-136-10-56 4-94 16-146 42-44 22-70 40-104 76-36 34-54 60-76 102-20 42-34 78-38 112-6 48-6 92 0 140 8 56 44 136 84 184 24 28 60 62 84 78 36 24 84 46 126 58 34 10 94 16 140 12zM404 652c0 0-20-92-44-206l-44-204 42-2c24 0 44 0 44 2 0 0 8 38 18 86l18 88h200l6 32c4 18 8 34 8 34 0 2-4 4-98 4-56 0-100 0-100 0s18 90 18 94l2 4h204v2c0 2 4 18 8 36l6 30h-144c-80 0-144 0-144 0z" />
<glyph unicode="&#x22;" glyph-name="f-selected" data-tags="f-selected" d="M476 928c-4-2-12-2-20-2-212-20-390-186-424-396-6-30-8-48-8-82 0-44 4-78 14-118 48-184 198-324 386-356 174-28 350 40 460 180 54 70 88 154 98 246 2 20 2 76 0 96-14 132-78 246-180 328-70 56-152 90-244 100-14 2-72 4-82 4zM688 636c-2-10-4-26-6-36l-4-16h-204v-4c-2 0-6-22-10-46-6-24-10-44-10-46l-2-2h202l-2-4c0-4-14-64-14-66 0 0-44 0-100 0h-100l-18-88c-10-48-18-86-18-86 0-2-20-2-44-2l-42 2 44 204c22 112 42 204 42 206 0 0 32 0 146 0h144z" />
<glyph unicode="&#x23;" glyph-name="successful" data-tags="successful" d="M998 890c-312-192-538-432-640-554l-248 196-110-88 430-438c74 190 308 560 594 822z" />
<glyph unicode="&#x24;" glyph-name="male" data-tags="male" d="M766 958h-124l-54-54c-30-30-54-54-54-54 0-2 68-2 152-2l152 2-168-170c-94-92-170-168-172-166 0 0-6 4-10 6-14 10-44 24-60 30-8 2-26 8-40 10-60 14-82 14-142 0-50-12-74-22-112-50-30-20-52-42-74-72-28-38-38-62-50-114-14-60-14-82 0-142 12-50 22-74 50-112 22-30 44-52 74-74 40-28 60-38 118-50 32-8 36-8 66-8 28 0 34 0 64 8 58 12 80 22 120 50 30 22 52 44 72 74 28 38 38 62 50 112 14 60 14 82 0 142-2 14-8 32-10 40-6 16-20 46-30 60l-6 10 104 106c58 58 134 134 168 170l66 64-2-152v-154l108 108 2 192v192h-66c-36 0-122-2-192-2zM364 474c44-10 82-30 114-62 32-34 52-72 60-116 4-20 4-66 0-84-8-46-28-84-62-118-32-32-72-52-116-62-20-4-66-4-84 0-46 10-84 30-118 62-32 34-52 72-62 118-4 18-4 64 0 84 8 44 30 82 62 116 34 32 76 56 118 62 8 2 18 4 18 4 8 2 56-2 70-4z" />
<glyph unicode="&#x25;" glyph-name="female" data-tags="female" d="M498 956c-16-2-64-14-80-18-34-12-84-44-114-74s-62-78-72-112c-2-8-8-26-10-40-14-60-14-82 0-142 12-52 22-76 48-114 22-30 44-52 74-72 38-28 62-38 110-50l24-6v-146h-178v-84h178v-162h102v162h178v84h-178v146l22 6c48 12 74 22 110 50 30 20 52 42 74 72 28 38 38 62 50 114 14 60 14 82 0 142-12 50-22 74-50 112-22 30-44 52-74 74-38 28-62 38-112 50-46 10-72 12-102 8zM574 860c44-8 82-30 114-62s52-72 62-116c4-18 4-66 0-84-10-44-30-84-62-116-34-34-72-54-118-62-18-4-66-4-84 0-44 8-84 28-116 62-34 32-54 72-64 116-2 18-2 66 0 84 10 44 30 84 62 116 34 34 76 56 120 64 8 0 16 2 18 2 8 2 56 0 68-4z" />
<glyph unicode="&#x26;" glyph-name="exclam" data-tags="exclam" d="M400 928c0-10 6-154 12-320 6-164 10-308 12-318v-18h176v6c0 2 6 154 14 334 6 180 12 330 12 332 0 4-4 4-114 4h-114zM480 174c-30-6-62-28-78-52-18-32-18-78 0-110 6-12 26-32 38-40 8-4 20-10 28-14 16-4 20-4 46-4s30 0 46 4c38 14 66 42 76 78 2 16 2 44-2 58-10 40-44 72-88 80-16 4-48 4-66 0z" />
<glyph unicode="&#x27;" glyph-name="compass" data-tags="compass" d="M468 894c-104-10-204-58-278-136-172-178-168-460 12-632 66-64 146-104 240-120 36-6 104-6 140 0 100 16 184 60 254 132 64 68 102 146 118 240 4 20 4 32 4 70 0 36 0 50-4 70-16 94-56 174-120 240-96 100-228 148-366 136zM550 830c116-12 220-74 284-172 114-176 66-412-108-530-142-94-330-84-460 26-150 124-182 342-76 504 80 120 218 186 360 172zM754 694c-168-62-294-120-330-154-30-26-84-140-146-302-8-20-14-36-14-38 2 0 26 10 58 20 150 58 258 112 282 140 30 32 80 136 134 278 12 30 22 56 22 56 0 2-2 2-6 0zM540 506c12-6 24-18 30-32 8-14 8-38 0-54-6-12-18-24-30-30-16-8-40-8-54 0-52 26-48 98 6 118 12 6 34 4 48-2z" />
<glyph unicode="&#x28;" glyph-name="location" data-tags="location" d="M470 892c-152-20-270-150-278-308 0-22 0-24 4-30 12-22 44-22 56-2 2 6 4 14 4 30 4 68 32 130 80 178 88 84 216 96 318 28 54-38 96-102 110-168 8-42 4-76-8-116-28-80-106-190-220-308l-24-24-16 14c-8 8-28 26-42 42-80 86-126 146-164 220-6 14-14 26-18 28-2 4-10 6-16 6-8 0-12 0-18-4-16-12-20-24-10-46 32-78 118-190 216-284 50-50 58-54 76-52 16 4 104 96 170 176 68 86 118 172 134 238 10 36 10 74 4 114-30 174-188 292-358 268zM484 700c-46-10-88-50-96-98-20-90 60-170 152-152 46 10 88 52 98 98 18 92-62 172-154 152zM540 634c12-6 24-18 30-32 4-8 6-12 6-26 0-16-2-18-8-30-8-14-14-20-28-28-10-4-14-6-28-4-14 0-18 0-28 4-14 8-20 14-28 28-6 12-6 14-6 30 0 14 0 18 4 28 4 4 8 12 10 16 6 6 24 16 32 18 12 2 32 0 44-4zM212 286c-4-2-8-6-12-8-2-2-32-56-70-120-64-114-64-116-64-126 0-12 2-20 12-26l6-6h856l6 6c10 6 14 14 14 26 0 10-2 12-66 126-38 66-70 118-72 122-22 20-58 0-54-28 2-4 20-40 52-96 30-50 52-90 52-92 0 0-162 0-360 0s-360 0-360 0c0 2 24 42 52 92 50 88 52 90 52 100 0 12-4 20-14 26-8 6-22 6-30 4z" />
<glyph unicode="&#x29;" glyph-name="search-performance" data-tags="search-performance" d="M402 876c-42-6-78-16-112-32-166-78-244-266-184-440 20-52 56-106 98-144 118-104 288-118 422-36l16 10 104-104c66-66 106-106 112-108 48-24 104 12 102 68-2 26-2 26-118 142l-104 104 6 10c18 28 34 74 42 112 4 20 6 30 6 66 0 50-4 72-18 112-40 122-146 214-274 236-26 4-76 6-98 4zM460 762c106-10 188-84 214-190 2-12 2-24 2-50 0-30 0-34-6-56-22-86-86-150-172-174-26-6-72-8-98-4-86 16-154 72-186 154-12 34-16 80-12 118 18 108 106 192 216 202 8 0 16 2 18 2 0 0 12-2 24-2z" />
<glyph unicode="&#x2a;" glyph-name="administrator" data-tags="administrator" d="M486 954c-82-12-140-64-156-142-10-40-10-80 0-124 12-56 42-114 78-152 18-20 18-52 2-74-6-6-14-12-32-18-86-34-158-78-192-116-22-26-28-42-26-78 0-20 0-22 6-32 8-20 24-34 48-46 10-6 34-16 38-16 0 0 0 4 0 8 0 12 6 32 10 38 2 4 6 8 10 10 4 4 28 10 44 10 14 2 20 6 24 12 4 10 4 12-18 40-12 18-16 28-14 42 6 22 30 46 54 52 12 4 22 0 40-14 30-22 32-22 42-16 6 4 8 8 10 24s8 38 12 44c6 12 24 18 46 18 24 0 40-6 48-18 4-6 8-22 12-44 2-18 4-22 10-24 10-6 14-4 36 12 24 18 32 22 46 18 22-6 48-30 52-52 4-14 0-24-14-42-20-28-22-30-16-40 4-6 10-10 24-12 16 0 38-6 44-10 4-2 8-6 10-10 4-6 10-28 10-38 0-4 0-8 0-8 4 0 38 16 50 24 18 12 28 22 34 36l6 12v28c0 26 0 30-4 38-6 16-16 30-32 46-38 36-102 72-182 102-26 8-28 10-34 18-8 12-12 32-6 54 2 10 4 14 12 24 40 46 68 104 80 166 4 20 4 64 2 82-6 48-24 86-52 114-26 26-58 44-96 52-16 2-52 4-66 2zM500 390c-4 0-6-2-8-2 0-2-4-12-4-26-4-26-10-38-20-48-12-10-18-10-32-10-18-2-22 0-44 18-24 18-22 16-32 10-4-4-12-10-14-16-8-10-8-6 10-32 16-22 18-26 18-42s-2-20-12-32c-8-12-22-16-46-20s-26-4-28-6c-4-8-4-34 0-40 2-2 8-2 20-4 34-6 46-10 56-22 8-12 10-16 10-32s-2-20-18-42c-18-24-18-22-10-32 2-6 10-12 14-16 10-6 8-8 32 10 22 18 26 20 44 20 14-2 20-2 32-12 10-8 16-22 18-46 4-24 4-26 8-28 8-4 32-4 38 0 2 2 4 8 6 20 4 34 8 46 22 56 10 8 16 8 30 10 16 0 22-2 44-20 24-18 22-16 30-10 6 4 12 10 16 14 8 12 8 8-10 34-16 22-18 26-18 42s2 20 10 32c10 12 22 16 56 22 12 2 18 2 18 4 6 6 6 34 0 40 0 2-6 4-18 4-34 6-46 10-56 22-8 12-10 16-10 32s2 20 18 42 18 22 10 32c-2 6-10 12-14 16-10 6-8 8-32-10-22-18-28-20-44-18-14 0-20 0-30 10-14 8-18 20-22 54-2 10-4 18-4 20-4 4-24 4-34 2zM532 268c30-4 60-26 74-54 10-18 12-30 12-50s-2-32-12-50c-12-26-38-46-66-52-14-4-40-4-54 0-40 10-70 44-78 82-2 16-2 24 0 40 6 32 28 60 56 74 24 12 44 14 68 10z" />
<glyph unicode="&#x2b;" glyph-name="kommandant" data-tags="kommandant" d="M496 956c-18-4-40-16-100-54-60-36-100-56-140-70-22-8-28-12-34-22-8-18-2-26 36-62 14-14 18-20 22-36l2-10 28-6c38-6 76-12 118-18 26-2 42-2 84-2s58 0 84 2c44 6 80 12 118 18l30 6v10c2 14 6 20 26 40 30 32 36 46 28 60-6 10-10 14-30 20-38 14-78 34-134 68-52 30-66 38-82 46-24 12-38 14-56 10zM532 838c12-4 22-10 32-18l6-6-2-10c-2-22-12-46-26-60-8-10-22-18-30-18s-22 8-30 18c-14 14-26 44-28 62 0 8 4 12 18 22 20 14 40 18 60 10zM286 664c42-76 104-126 180-142 24-4 68-4 92 0 66 14 120 52 162 112 14 22 24 42 22 42s-12-2-22-4c-94-20-192-28-262-22-46 4-110 12-154 22-10 2-20 4-22 4s0-4 4-12zM686 562c-26-26-62-46-98-58-24-8-46-12-76-12-42 0-74 8-110 24-18 10-48 28-64 44-8 8-14 14-14 14-2 0-2-24 0-42 8-66 40-140 84-188 18-20 18-50 2-72-6-8-14-12-32-20-86-32-158-76-192-116-22-24-28-40-26-76 0-22 0-24 6-34 18-42 78-68 186-80 80-12 240-12 322 0 46 6 84 14 112 24 20 8 26 10 40 20 16 10 26 22 32 36l6 10v30c0 26 0 28-4 38-6 14-16 28-32 44-38 38-102 74-182 102-26 10-28 12-34 18-8 12-12 34-6 56 2 10 4 12 12 22 40 46 68 104 80 166 2 14 4 64 4 64-2 0-8-6-16-14zM528 242c16-12 20-18 26-30s6-12-14-28c-8-8-16-14-16-14s2-8 6-16c10-22 24-62 30-86 12-42 18-90 12-94-8-6-90-6-116 0l-6 2v12c0 34 20 110 44 166 4 8 6 16 6 16s-8 8-18 14l-18 16 2 6c2 6 12 20 18 26 8 8 26 22 28 22s8-6 16-12z" />
<glyph unicode="&#x2c;" glyph-name="central" data-tags="central" d="M486 956c-82-10-140-62-156-140-10-40-10-80 0-124 12-56 42-114 78-154 18-18 18-50 2-72-6-8-14-12-32-20-86-32-158-76-192-116-22-24-28-40-26-76 0-22 0-24 6-34 8-18 24-32 50-46 14-6 34-14 36-14 0 0 2 8 2 14 2 18 10 52 18 68 24 62 76 114 138 138 28 12 68 20 96 20 34 0 78-10 110-26 58-28 108-82 128-142 6-18 12-48 14-64l2-12 8 2c18 6 42 16 56 24 18 12 28 24 34 38l6 12v28c0 26 0 30-4 38-6 14-16 28-32 44-38 38-102 74-182 102-26 10-28 12-34 18-8 12-12 34-6 56 2 10 4 12 12 22 40 46 68 104 80 168 4 18 4 62 2 82-6 48-24 84-52 114-26 26-58 42-96 50-16 4-52 4-66 2zM472 364c-24-4-42-10-62-20-22-10-38-22-56-40-34-34-52-72-60-120-4-24-4-42 0-64 8-48 26-86 60-118 32-32 66-50 112-60 54-10 112 2 160 34 16 10 44 40 56 56 32 48 44 104 34 160-10 46-28 80-60 112-34 34-70 52-118 60-24 4-44 4-66 0zM498 290v-48l-14 2c-14 0-34 6-44 8l-4 2 8 16c4 10 12 22 16 30 10 12 34 38 36 38s2-22 2-48zM526 326c16-16 30-36 40-54 4-10 8-18 8-18-4-2-44-10-54-10h-8v46c0 26 0 48 2 48 0 0 6-6 12-12zM472 334c0 0 0 0 0-2-4 0-18-18-26-30-6-10-20-34-22-40-2-2-4-2-14 4-14 6-34 18-34 20 0 4 26 24 48 34 10 6 30 12 44 16 4 0 4 0 4-2zM564 328c10-2 22-8 28-10 12-8 34-22 40-28l2-4-8-6c-12-8-30-18-36-20-2 0-4 0-10 12-8 18-20 38-34 52l-10 12h6c2-2 12-4 22-8zM382 266c6-6 18-12 24-14 8-4 12-6 10-8-6-16-10-42-14-76l-2-8h-82l2 12c2 32 18 70 40 98 4 4 6 6 8 4 0 0 6-4 14-8zM654 264c20-28 32-58 36-96l2-8h-84v14c-2 18-8 50-12 62l-4 10 14 6c6 4 18 10 26 16 6 4 12 8 12 8s6-6 10-12zM460 234c8-2 20-4 26-4l12-2v-68h-82v8c0 16 8 54 12 70 2 4 2 4 10 2 2-2 14-4 22-6zM584 228c4-16 8-34 10-52v-16h-82v68l12 2c12 0 40 6 48 10 4 0 6 0 8 0 0 0 2-6 4-12zM402 136c2-32 12-68 20-88 0 0-4-2-8-4-8-4-20-10-38-22-2-2-4-2-12 8-24 26-42 68-44 102l-2 14h82zM498 144c0 0 0-18 0-40v-42l-18-2c-10 0-24-2-30-4-8-2-14-4-14-2-4 0-14 34-16 48-2 8-4 22-4 30v14h40c22 0 42-2 42-2zM594 142c0-2 0-10-2-18 0-16-6-38-12-56-4-14-6-16-8-16-18 4-36 8-48 10h-12v84h84zM690 136c-4-42-20-80-46-106l-8-10-14 10c-6 4-18 10-24 12l-10 6 2 6c8 18 16 52 18 78v14h84zM498 8c0-28 0-40-2-40s-24 22-34 36c-10 14-22 34-20 36 4 2 44 10 54 8 0 0 2-8 2-40zM548 44c10-2 18-4 20-4 4-4-24-42-44-62l-12-12v82h10c6 0 18-2 26-4zM432 26c6-10 20-32 32-46l8-12-6 2c-18 4-46 14-66 28-16 12-16 12-10 16 4 4 36 20 38 20 0 0 2-4 4-8zM612 20c6-4 12-8 12-10s-18-14-32-22c-14-8-38-16-50-18l-6-2 10 12c10 12 22 28 30 44l6 10 8-4c4 0 14-6 22-10z" />
<glyph unicode="&#x2d;" glyph-name="payment" data-tags="payment" d="M792 296c0-112-78-206-222-230v-130l-124 26v94c-84 4-166 26-214 54l38 146c52-28 126-56 208-56 72 0 122 30 122 78s-40 78-134 110c-134 46-226 108-226 230 0 112 78 198 212 222v120l122-30v-80c84-2 140-22 184-42l-38-142c-32 16-90 44-180 44-82 0-108-36-108-72 0-40 44-68 152-106 148-52 208-122 208-236z" />
<glyph unicode="&#x2e;" glyph-name="attachment" data-tags="attachment" d="M940 812c-112 112-296 112-408 0l-466-462c-88-88-88-230 0-316 86-88 228-88 316 0l468 460c62 64 62 164 0 228-64 62-164 62-228 0l-350-352c-12-12-12-32 0-46 12-12 32-12 46 0l350 352c38 38 98 38 136 0s38-98 0-136l-468-462c-62-62-162-62-226 0-62 64-62 164 0 226l464 458c86 88 228 88 316 0s88-230 0-316l-346-348c-14-12-14-32 0-44 12-14 32-14 44 0l352 350c112 112 112 296 0 408z" />
<glyph unicode="&#x2f;" glyph-name="expand" data-tags="expand" d="M778 598l-266-264-266 264c-12 14-32 14-44 0-14-12-14-32 0-44l288-288c12-14 32-14 44 0l288 288c14 12 14 32 0 44-12 14-32 14-44 0z" />
<glyph unicode="&#x30;" glyph-name="excel" data-tags="excel" d="M0 470v-488h1024v978h-1024zM464 658l40-64 44 64 42 64h90c74 0 88 0 86-2 0-2-40-56-88-118-50-62-88-116-88-116 0-2 46-62 100-136 56-72 102-132 102-134 0 0-38 0-86 0h-86l-56 82c-32 44-60 82-60 82s-28-36-62-82l-60-82h-88c-68 0-86 0-84 2 0 2 48 62 106 134 58 74 104 134 104 134 0 2-38 54-84 118-48 64-86 116-86 116 0 2 40 2 86 2h88z" />
<glyph unicode="&#x31;" glyph-name="user-info" data-tags="user-info" d="M934 894c-24-6-36-24-36-46 0-42 48-64 80-34 22 24 16 60-12 76-10 4-24 6-32 4zM490 788c-48-6-92-34-120-76-18-28-28-58-28-94 0-76 48-140 124-164 16-4 20-4 46-4s32 0 48 4c46 14 82 44 102 86 14 24 18 42 20 72 2 50-16 94-50 128-16 16-28 24-48 32-28 14-64 20-94 16zM888 738l-54-8-2-8-2-6h10c22 0 28-8 24-28-2-8-14-52-28-100-12-46-24-90-26-96-4-22 4-42 18-48 20-8 42-6 64 4 16 8 38 32 54 56l12 18-4 4c-2 2-6 4-6 4s-6-8-12-16c-12-18-28-32-34-32-4 0-10 4-10 8 0 6 8 34 38 142 20 62 34 114 34 116s-26-2-76-10zM464 360c-4 0-18-2-30-4-102-14-192-64-246-138-18-24-18-22-18-70l2-42h682v42c0 48 0 46-20 74-52 70-140 118-242 136-20 2-114 4-128 2z" />
<glyph unicode="&#x32;" glyph-name="device-mobile" data-tags="device-mobile" d="M242 958c-18-4-36-18-44-36l-4-10v-930l4-10c6-12 18-24 32-30l10-6h546l10 6c12 6 24 18 30 30l6 10v930l-6 10c-6 14-18 26-30 32l-10 4-270 2c-148 0-272-2-274-2zM562 890c10-8 14-14 14-26s-4-20-14-26c-6-4-10-6-46-6-44 0-50 0-60 10-10 12-10 30 0 42 8 12 12 12 58 12 38-2 42-2 48-6zM768 448v-320h-512v640h512zM562 58c10-8 14-14 14-26s-4-20-14-26c-6-4-10-6-46-6-44 0-50 0-60 10-10 12-10 30 0 42 8 12 12 12 58 12 38-2 42-2 48-6z" />
<glyph unicode="&#x33;" glyph-name="data-grid" data-tags="data-grid" d="M0 448v-416h1024v832h-1024zM342 642v-54h-300v106h300zM662 642v-54h-300v106h300zM980 642v-54h-298v106h298zM342 512v-52h-300v106h300zM662 512v-52h-300v106h300zM980 512v-52h-298v106h298zM342 386v-54h-300v106h300zM662 386v-54h-300v106h300zM980 386v-54h-298v106h298zM342 256v-52h-300v106h300zM662 256v-52h-300v106h300zM980 256v-52h-298v106h298zM342 130v-54h-300v108h300zM662 130v-54h-300v108h300zM980 130v-54h-298v108h298z" />
<glyph unicode="&#x34;" glyph-name="close-round" data-tags="close-round" d="M512 874c-234 0-426-192-426-426s192-426 426-426c234 0 426 192 426 426s-192 426-426 426zM722 298l-60-60-150 150-150-150-60 60 150 150-150 150 60 60 150-150 150 150 60-60-150-150z" />
<glyph unicode="&#x35;" glyph-name="check-round" data-tags="check-round" d="M512 960c-282 0-512-230-512-512s230-512 512-512c282 0 512 230 512 512s-230 512-512 512zM842 552l-366-368c-8-6-20-6-28 0l-54 56c-8 8-20 20-26 28l-128 132c-2 4-4 8-4 14 0 4 2 10 4 14l56 50c4 2 8 4 14 4 4 0 10-2 14-4l124-128c8-8 20-8 28 0l286 284c6 8 20 8 26 0l54-54c8-8 8-20 0-28z" />
<glyph unicode="&#x36;" glyph-name="bin-open" data-tags="bin-open" d="M490 918c-34-6-82-46-102-82-8-14-12-14-76-2-118 24-136 18-142-44-6-60-14-58 318-122 166-34 310-60 320-60 28 0 44 20 52 58 8 46-16 64-110 82l-76 14-6 32c-14 90-90 142-178 124zM176 344c0-200 2-262 12-282 12-32 56-74 86-86 14-4 94-8 198-8 192 0 212 4 254 50 40 42 42 60 42 330v252h-592zM344 512c16-16 16-26 16-216 0-214-2-224-44-224-34 0-36 8-36 224 0 178 2 208 12 220 18 16 32 16 52-4zM496 512c16-16 16-26 16-216 0-214-2-224-44-224-34 0-36 8-36 224 0 178 2 208 12 220 18 16 32 16 52-4zM640 512c16-16 16-26 16-216 0-214-2-224-44-224-34 0-36 8-36 224 0 178 2 208 12 220 18 16 32 16 52-4z" />
<glyph unicode="&#x37;" glyph-name="move-to" data-tags="move-to" d="M88 956c-30-6-60-30-74-58-14-24-14-28-14-160v-120h114v228h796v-796h-796v228h-114v-120c0-100 0-124 4-134 8-42 44-76 86-86 20-4 824-4 844 0 42 10 78 46 88 88 4 20 4 824 0 844-10 42-44 78-86 86-12 4-64 4-424 4-338 0-414 0-424-4zM444 692l-40-40 74-72c40-40 72-74 72-74 0-2-124-2-274-2h-276v-112h276c150 0 274 0 274-2 0 0-32-34-72-74l-74-74 80-78 284 284-142 142c-78 78-142 142-142 142s-18-18-40-40z" />
<glyph unicode="&#x38;" glyph-name="d-selected" data-tags="d-selected" d="M476 928c-4-2-12-2-20-2-212-20-390-186-424-396-6-30-8-48-8-82 0-44 4-78 14-118 48-184 198-324 386-356 174-28 350 40 460 180 54 70 88 154 98 246 2 20 2 76 0 96-14 132-78 246-180 328-70 56-152 90-244 100-14 2-72 4-82 4zM576 650c52-8 90-36 110-82 12-26 16-50 16-86 0-56-12-100-40-144s-60-70-106-86c-32-10-48-12-160-12l-88 2 44 204c24 112 42 204 42 206 2 2 164 2 182-2zM464 578c-2-12-56-270-56-270s20 0 42 0c70 0 84 4 112 32 24 24 42 58 50 96 2 12 2 18 2 46 2 26 0 32-2 40-6 32-28 54-54 60-6 2-22 2-50 2l-42 2z" />
<glyph unicode="&#x39;" glyph-name="d-deselected" data-tags="d-deselected" d="M476 928c-4-2-12-2-20-2-212-20-390-186-424-396-6-30-8-48-8-82 0-44 4-78 14-118 48-184 198-324 386-356 174-28 350 40 460 180 54 70 88 154 98 246 2 20 2 76 0 96-14 132-78 246-180 328-70 56-152 90-244 100-14 2-72 4-82 4zM540 850c54-4 92-16 146-42 42-22 68-40 104-76 34-34 52-60 74-102 28-54 38-92 42-148 4-44 0-102-10-136-12-42-34-90-60-128-22-32-70-80-102-102-36-24-86-48-128-60-34-10-92-14-136-10-56 4-94 16-146 42-44 22-70 40-104 76-36 34-54 60-76 102-20 42-34 78-38 112-6 48-6 92 0 140 8 56 44 136 84 184 24 28 60 62 84 78 36 24 84 46 126 58 34 10 94 16 140 12zM398 652c0 0-20-92-44-206l-42-204 86-2c54 0 94 2 106 2 32 2 54 8 82 22 18 8 32 18 48 34 14 14 16 18 28 36 22 34 36 72 40 114 4 20 2 66-2 80-8 36-20 60-40 82-22 24-48 36-86 42-10 0-176 2-176 0zM544 584c10-2 20-2 24-4 22-6 40-28 46-54 2-8 4-14 4-36 0-38-2-62-14-88-16-40-40-70-68-84-20-8-40-10-92-10h-34l2 2c0 2 12 64 28 140 16 74 28 134 28 134 0 2 60 0 76 0z" />
<glyph unicode="&#x3a;" glyph-name="smiley-happy" data-tags="smiley-happy" d="M464 958c-178-18-334-126-410-284-20-38-28-62-38-100-12-48-14-72-14-126s2-78 14-126c10-38 18-62 38-100 48-100 132-184 232-234 50-24 100-38 156-48 32-4 108-4 142 0 54 10 104 24 154 48 100 50 184 134 232 234 18 38 30 66 38 102 12 48 14 70 14 124s-2 76-14 122c-26 108-88 206-174 276-40 32-100 66-146 82-26 10-74 22-104 26-26 4-94 6-120 4zM586 868c60-12 110-32 160-64 100-66 166-166 186-286 4-20 6-30 6-70s-2-50-6-72c-32-180-170-316-348-348-34-6-88-8-124-4-196 26-350 180-372 376-2 24-2 72 0 94 22 198 178 354 374 378 26 4 98 0 124-4zM340 614c-16-6-26-16-34-30-8-18-10-28-6-44 14-50 74-66 110-28 14 16 20 42 12 64-4 14-24 34-36 38-14 4-34 4-46 0zM638 614c-12-4-32-24-36-36-14-44 14-86 58-86 36-2 66 26 64 64 0 24-16 50-40 58-12 4-32 6-46 0zM244 318c0-2 18-34 28-46 44-60 104-100 178-116 18-4 26-6 62-6s44 2 62 6c74 16 134 54 178 114 8 12 28 46 28 48s-120 2-268 2c-148 0-268 0-268-2zM698 276c0 0-6-6-12-12-36-34-76-54-122-66-16-4-24-4-52-4-32 0-36 0-58 6-42 10-84 34-116 64-6 6-12 12-12 12 0 2 78 2 186 2s186 0 186-2z" />
<glyph unicode="&#x3b;" glyph-name="smiley-normal" data-tags="smiley-normal" d="M464 958c-178-18-334-126-410-284-20-38-28-62-38-100-12-48-14-72-14-126s2-78 14-126c10-38 18-62 38-100 48-100 132-184 232-234 50-24 100-38 156-48 32-4 108-4 142 0 54 10 104 24 154 48 100 50 184 134 232 234 18 38 30 66 38 102 12 48 14 70 14 124s-2 76-14 122c-26 108-88 206-174 276-40 32-100 66-146 82-26 10-74 22-104 26-26 4-94 6-120 4zM586 868c60-12 110-32 160-64 100-66 166-166 186-286 4-20 6-30 6-70s-2-50-6-72c-32-180-170-316-348-348-34-6-88-8-124-4-196 26-350 180-372 376-2 24-2 72 0 94 22 198 178 354 374 378 26 4 98 0 124-4zM340 614c-16-6-26-16-34-30-8-18-10-28-6-44 14-50 74-66 110-28 14 16 20 42 12 64-4 14-24 34-36 38-14 4-34 4-46 0zM638 614c-12-4-32-24-36-36-14-44 14-86 58-86 36-2 66 26 64 64 0 24-16 50-40 58-12 4-32 6-46 0zM354 276c-8-4-12-10-12-20s4-18 12-20c4-2 56-2 158-2 134 0 154 0 160 2 14 8 14 34-2 40-8 2-308 2-316 0z" />
<glyph unicode="&#x3c;" glyph-name="smiley-sad" data-tags="smiley-sad" d="M464 958c-178-18-334-126-410-284-20-38-28-62-38-100-12-48-14-72-14-126s2-78 14-126c10-38 18-62 38-100 48-100 132-184 232-234 50-24 100-38 156-48 32-4 108-4 142 0 54 10 104 24 154 48 100 50 184 134 232 234 18 38 30 66 38 102 12 48 14 70 14 124s-2 76-14 122c-26 108-88 206-174 276-40 32-100 66-146 82-26 10-74 22-104 26-26 4-94 6-120 4zM586 868c60-12 110-32 160-64 100-66 166-166 186-286 4-20 6-30 6-70s-2-50-6-72c-32-180-170-316-348-348-34-6-88-8-124-4-196 26-350 180-372 376-2 24-2 72 0 94 22 198 178 354 374 378 26 4 98 0 124-4zM340 614c-16-6-26-16-34-30-8-18-10-28-6-44 14-50 74-66 110-28 14 16 20 42 12 64-4 14-24 34-36 38-14 4-34 4-46 0zM638 614c-12-4-32-24-36-36-14-44 14-86 58-86 36-2 66 26 64 64 0 24-16 50-40 58-12 4-32 6-46 0zM506 278c-76-30-142-58-144-58-6-4-10-14-8-20 0-6 10-16 16-18 8 0 290 112 296 120 8 6 6 16-2 24-10 12-6 12-158-48z" />
<glyph unicode="&#x3d;" glyph-name="download" data-tags="download" d="M490 956c-14-2-22-8-34-18-18-20-28-40-30-76-2-30-4-170 0-238v-48h-88c-60 0-90 0-96-2-10-4-22-14-26-22-2-8-2-20 2-28 4-10 266-278 274-284 4-2 10-4 20-4s16 2 20 4c10 6 274 282 276 290 6 16-4 36-26 44-4 2-34 2-96 2h-88l2 48c2 66 0 206-2 236-2 38-8 54-26 74-22 22-52 30-82 22zM196 148c-30-8-54-30-64-60s-2-52 20-62c6-4 22-4 360-4s354 0 362 4c16 8 24 24 22 46-4 32-26 60-58 72l-10 4-310 2c-236 0-314 0-322-2z" />
<glyph unicode="&#x3e;" glyph-name="upload" data-tags="upload" d="M496 956c-4-2-10-6-16-12-24-22-258-266-262-272-4-8-6-22-2-30 4-10 16-18 26-22 6-2 36-2 96-2h88v-48c-4-68-2-208 0-238 2-14 4-30 6-36 14-42 52-68 94-60 16 2 28 8 40 20 20 18 30 38 32 76 2 32 4 172 2 238l-2 48h88c62 0 92 0 96 2 22 8 32 26 26 44-2 8-266 284-276 288-8 6-26 6-36 4zM196 148c-30-8-54-30-64-60s-2-52 20-62c6-4 22-4 360-4s354 0 362 4c16 8 24 24 22 46-4 32-26 60-58 72l-10 4-310 2c-236 0-314 0-322-2z" />
<glyph unicode="&#x3f;" glyph-name="statistics" data-tags="statistics" d="M0 448v-480h1024v74h-972v886h-52zM152 676c-10-10-10-556 0-568 10-10 132-10 142 0 12 12 12 558 0 568-10 10-132 10-142 0zM606 638c-6-6-8-70-8-262 0-304-10-278 88-274l66 2v538l-70 2c-48 0-70-2-76-6zM382 496c-6-2-8-48-8-192 0-224-8-206 90-202l64 2v394h-68c-38 2-74 0-78-2zM828 208c0-118-8-110 90-106l64 2 2 104 2 102h-158z" />
<glyph unicode="&#x40;" glyph-name="adressbook" data-tags="adressbook" d="M198 930c-12-4-22-16-24-26 0-4-2-22-2-42v-34h48c54-2 60-2 74-14 24-16 32-46 24-74-6-12-20-30-34-36-8-4-12-6-60-6l-50-2-2-38v-40l100-2 12-6c16-8 24-16 32-32 14-32-2-74-38-86-10-4-14-4-58-4h-48v-80h48c44 0 48 0 58-4 30-10 48-42 42-72-4-22-16-38-38-48-10-4-12-6-60-6h-50v-40l2-40h50c58-2 62-2 80-20 14-16 20-34 16-56-2-14-8-24-18-34-18-16-30-20-88-20h-42v-34c0-20 2-38 2-42 2-10 12-22 24-26 6-4 24-4 374-4h368l10 4c6 4 12 10 16 14l6 8v920l-6 8c-4 4-10 10-16 12l-10 6h-368c-350 0-368 0-374-4zM666 716c60-20 96-76 92-138-4-40-28-80-64-102-20-12-38-16-62-18-28 0-42 2-66 14-14 6-20 12-34 26-18 18-30 36-34 60-4 16-4 48 0 64 8 34 36 70 68 86 24 10 38 14 64 14 16-2 24-2 36-6zM600 388l26-24 24 24 24 26h22c12-2 28-4 34-6 48-12 86-50 98-98 4-12 4-22 4-72v-56h-414v60c2 66 2 72 16 98 6 12 14 22 26 32 26 28 58 40 102 42h14zM70 792c-24-14-24-48 0-60l8-4h92c60 0 94 0 98 2 8 2 16 12 20 20 6 14 0 34-16 42l-8 4h-186zM70 582c-14-6-22-24-16-40 2-10 14-20 24-22s176-2 188 0c10 4 22 14 24 24 2 16-4 32-18 38-6 4-14 4-100 4-84 0-96 0-102-4zM76 374c-22-6-30-32-18-50 12-14 10-14 116-14h96l6 6c22 16 16 52-12 60-12 4-178 2-188-2zM70 164c-24-12-24-48 0-60 10-4 12-4 102-4h92l8 4c10 6 18 18 18 30s-8 24-18 30l-8 4h-92c-90 0-94 0-102-4z" />
<glyph unicode="&#x41;" glyph-name="filter" data-tags="filter" d="M922 732c0 36-28 64-64 66h-686c0 0-2 0-4 0-36 0-66-30-66-66 0-22 10-40 26-52l308-308v-192c0-14 8-24 18-30l80-46c0 0 2 0 2-2 6-2 12-4 18-4 20 0 34 16 34 34 0 2 0 2 0 4v236l312 310c14 12 22 30 22 50z" />
<glyph unicode="&#x42;" glyph-name="arrow-left" data-tags="arrow-left" d="M576 576v192l-384-320 384-320v192h256v256z" />
<glyph unicode="&#x43;" glyph-name="arrow-down" data-tags="arrow-down" d="M640 512v256h-256v-256h-192l320-384 320 384z" />
<glyph unicode="&#x44;" glyph-name="edit" data-tags="edit" d="M562 954c-6-2-8-6-38-52-16-28-40-66-54-86-162-262-348-560-350-566 0-2-4-70-8-148-10-158-10-150 2-154 4-2 8-2 12 0 14 6 278 126 280 128s104 166 390 622c24 40 44 74 46 76 2 6-2 14-8 20-26 16-260 160-262 162-2 0-6 0-10-2zM664 810c44-26 80-48 80-50 2-2-4-10-22-40-14-22-24-40-24-40-2 0-36 20-78 48-44 26-80 48-82 50-2 0 4 10 24 40 12 22 24 40 24 40 2 0 36-22 78-48zM574 660c50-32 78-50 78-52-2-2-62-98-136-216l-134-214-12 8c-8 4-42 26-80 48-36 24-66 42-68 42 0 0 270 434 270 434 2 0 38-24 82-50zM254 156c36-22 66-42 66-42-2 0-142-64-142-64s2 32 4 70c2 38 4 70 4 72 0 4 0 6 0 6 2 0 32-20 68-42zM532 28c-2-2-6-4-6-6-2-6-2-64 0-70s8-8 40-8c36 0 38 2 42 12 2 8 2 54 0 62-4 12-6 12-42 12-18 0-32-2-34-2zM686 26c-8-4-8-10-8-44 0-32 0-38 8-42 6-2 66-4 72 0 8 4 10 10 10 42 0 34-2 40-10 44-6 4-66 2-72 0zM846 24c-6-2-8-8-8-42 0-32 2-38 8-40 6-4 64-4 70 0 6 2 8 8 8 40 0 34-2 40-8 42s-66 2-70 0z" />
<glyph unicode="&#x45;" glyph-name="eye" data-tags="eye" d="M512 832c-192 0-416-128-512-384 96-192 288-320 512-320s416 128 512 320c-96 256-320 384-512 384zM512 192c-192 0-352 128-384 256 32 128 192 256 384 256s352-128 384-256c-32-128-192-256-384-256zM512 640c-20 0-38-4-56-10 34-14 56-48 56-86 0-54-42-96-96-96-38 0-72 22-86 56-6-18-10-36-10-56 0-106 86-192 192-192s192 86 192 192c0 106-86 192-192 192z" />
<glyph unicode="&#x46;" glyph-name="add" data-tags="add" d="M896 512h-320v320c0 36-28 64-64 64s-64-28-64-64v-320h-320c-36 0-64-28-64-64s28-64 64-64h320v-320c0-36 28-64 64-64s64 28 64 64v320h320c36 0 64 28 64 64s-28 64-64 64z" />
<glyph unicode="&#x47;" glyph-name="star" data-tags="star" d="M938 552c-4 8-12 14-20 14h-288l-98 278c-4 8-12 14-20 14s-16-6-20-14l-98-278h-288c-8 0-16-6-20-14-2-8 0-18 8-22l224-180-100-284c-4-8 0-18 6-22 6-6 16-8 24-2l264 158 264-158c4-2 8-4 10-4 6 0 10 2 14 6 6 4 10 14 6 22l-100 284 224 180c8 4 10 14 8 22z" />
<glyph unicode="&#x48;" glyph-name="check" data-tags="check" d="M768 768l-384-384-128 128-128-128 256-256 512 512z" />
<glyph unicode="&#x49;" glyph-name="chevron-down" data-tags="chevron-down" d="M704 640l-192-192-192 192-128-128 320-320 320 320z" />
<glyph unicode="&#x4a;" glyph-name="zoom-in" data-tags="zoom-in" d="M582 854c-182 0-328-148-328-328 0-62 16-120 46-170l-158-158c-16-16-28-40-28-66 0-50 42-90 92-90 24 0 48 10 64 28v-2l164 164c44-22 94-34 148-34 180 0 328 146 328 328 0 180-148 328-328 328zM584 328c-114 0-206 90-206 204 0 112 92 204 206 204 112 0 204-92 204-204 0-114-92-204-204-204zM704 580h-72v72c0 10-8 16-16 16 0 0-2 0-2 0h-62c-10 0-16-6-16-16 0 0 0 0 0-2v-70h-74c-8 0-16-8-16-16v-64c0-10 8-16 16-16 2 0 2 0 2 0h72l-2-72h2c0-10 6-16 16-16h64c8 0 16 6 16 16v72h72c8 0 16 6 16 16v64c0 8-8 16-16 16z" />
<glyph unicode="&#x4b;" glyph-name="minus" data-tags="minus" d="M834 512h-644c-34 0-62-28-62-64s28-64 62-64h644c34 0 62 28 62 64s-28 64-62 64z" />
<glyph unicode="&#x4c;" glyph-name="search" data-tags="search" d="M690 364c30 48 46 104 46 164 0 168-136 304-304 304s-304-136-304-304c0-168 136-306 304-306 62 0 118 18 166 50l14 10 216-218 68 68-216 218zM602 698c46-46 72-106 72-170s-26-126-72-170c-44-46-104-70-170-70-64 0-124 24-170 70-44 44-70 106-70 170s26 124 70 170c46 44 106 70 170 70 66 0 126-26 170-70z" />
<glyph unicode="&#x4d;" glyph-name="zoom-out" data-tags="zoom-out" d="M582 854c-182 0-328-148-328-328 0-62 16-120 46-170l-158-158c-16-16-28-40-28-66 0-50 42-90 92-90 24 0 48 10 64 28v-2l164 164c44-22 94-34 148-34 180 0 328 146 328 328 0 180-148 328-328 328zM584 328c-114 0-206 90-206 204 0 112 92 204 206 204 112 0 204-92 204-204 0-114-92-204-204-204zM704 580h-242c-8 0-16-8-16-16v-64c0-10 8-16 16-16h242c8 0 16 6 16 16v64c0 8-8 16-16 16z" />
<glyph unicode="&#x4e;" glyph-name="chevron-left" data-tags="chevron-left" d="M736 640l-128 128-320-320 320-320 128 128-192 192z" />
<glyph unicode="&#x4f;" glyph-name="chevron-right" data-tags="chevron-right" d="M416 768l-128-128 192-192-192-192 128-128 320 320z" />
<glyph unicode="&#x50;" glyph-name="alarm" data-tags="alarm" d="M512 640c-36 0-64-28-64-64v-166l-46-46c-16-16-18-30-18-44 0-36 28-64 64-64 18 0 34 8 44 18l66 68c10 8 18 24 18 42v192c0 36-28 64-64 64zM512 832c-248 0-448-200-448-448 0-100 34-194 90-268l-72-72c-12-12-18-28-18-44 0-38 32-64 64-64 16 0 32 6 44 18l72 72c74-56 168-90 268-90s194 34 268 90l72-72c12-12 28-18 44-18 32 0 64 26 64 64 0 16-6 32-18 44l-72 72c56 74 90 168 90 268 0 248-200 448-448 448zM512 64c-176 0-320 144-320 320s144 320 320 320c176 0 320-144 320-320s-144-320-320-320zM832 960c-68 0-128-36-162-90 126-40 230-128 292-242 38 34 62 84 62 140 0 106-86 192-192 192zM354 870c-34 54-94 90-162 90-106 0-192-86-192-192 0-56 24-106 62-140 62 114 166 202 292 242z" />
<glyph unicode="&#x51;" glyph-name="calendar" data-tags="calendar" d="M172 878v-72l-30-2c-36-2-58-12-74-32l-12-16-2-374c-2-254 0-378 4-388 4-20 30-42 50-48 24-8 790-6 810 0 22 6 40 24 48 42 8 16 8 32 8 390l-2 372-12 18c-16 24-38 34-78 36l-34 2v146h-184v-146h-310v146h-182zM294 848v-42h-58v84h58zM786 848v-42h-56v84h56zM910 338c0-246-2-324-6-326-6-8-774-8-780 0-4 2-6 80-6 326v320h792zM358 496v-62h124v122h-124zM542 496v-62h122v122h-122zM726 496v-62h122v122h-122zM172 312v-62h122v122h-122zM358 312v-62h124v122h-124zM542 312v-62h122v122h-122zM726 312v-62h122v122h-122zM172 124v-60h122v122h-122zM358 124v-60h124v122h-124zM542 124v-60h122v122h-122z" />
<glyph unicode="&#x52;" glyph-name="user" data-tags="user" d="M682 618c0-94-76-170-170-170s-170 76-170 170c0 94 76 172 170 172s170-78 170-172zM512 362c-260 0-342-170-342-170v-86h684v86c0 0-82 170-342 170z" />
<glyph unicode="&#x53;" glyph-name="print" data-tags="print" d="M206 812v-104h-204v-482l102-2h102v-242h450l188 188v28l2 26h88l88 2v482h-176l-2 104v104h-638zM772 776v-68h-494v66c0 36 0 68 2 68 0 0 112 2 246 2h246zM906 378v-118h-62v172h-72v-202h-192v-176h-300l-2 188v190h-72v-172h-62v236h762z" />
<glyph unicode="&#x54;" glyph-name="edit-contact" data-tags="edit-contact" d="M404 952c-50-6-98-28-132-62-36-36-58-80-68-138-2-26-2-80 2-106 16-78 50-152 100-206 12-14 14-20 16-44 0-18-2-28-10-40-8-14-18-20-58-36-38-14-104-48-134-64-58-38-98-76-112-112-6-16-8-66-2-84 14-52 84-88 210-106 36-6 92-10 142-12h40l-2 12c0 6 0 16 2 24 6 28 52 180 58 192 6 10 18 24 76 84l70 70-18 6c-14 4-20 8-24 14-12 12-14 20-14 42 0 28 4 40 20 58 66 78 106 192 98 288-4 52-16 88-40 124-36 54-92 88-164 96-22 2-32 2-56 0zM886 480c-10-4-18-8-30-20l-12-14 140-140 12 14c16 16 20 24 22 38 2 22-2 26-48 72-22 24-44 44-48 46-10 4-28 6-36 4zM802 410l-16-16 72-72 74-72 16 14c8 8 16 14 16 16 0 0-32 34-72 74l-72 72zM646 254l-120-120-24-84c-14-46-26-88-26-90 0-12 8-22 20-20 4 0 46 10 92 24l84 26 118 116c66 66 120 118 120 120 0 0-32 34-72 74l-72 72zM600 94l28-4v-26c2-26 2-28 8-34l6-6-4-2c-2 0-22-6-44-14l-40-10-20 18 8 30c6 18 12 38 14 46l4 14 6-4c4-6 8-6 34-8z" />
<glyph unicode="&#x55;" glyph-name="import" data-tags="import" d="M632 736l-142-144-138 134v-438h440l-136 136 148 148 146 148-78 80c-44 44-84 80-88 80s-74-64-152-144zM100 604c-28-26-28-542 0-568 26-28 542-28 568 0 12 10 20 54 20 96 0 70-4 76-38 76s-40-10-46-52l-4-52h-432v432l52 4c42 6 52 12 52 46s-6 38-76 38c-42 0-86-8-96-20z" />
<glyph unicode="&#x56;" glyph-name="comment" data-tags="comment" d="M32 888c-12-4-20-12-26-22l-4-8v-634l6-8c2-6 8-12 14-16l10-6 54-2h54l54-64c90-104 88-102 108-102 18 0 20 4 94 88l68 78h264l264 2 10 6c6 4 12 10 16 16l6 8v312c0 206 0 316-2 320-4 12-12 24-24 30l-10 4h-474c-384 0-476 0-482-2zM788 700c6-6 6-32 0-38l-2-4h-298c-292 0-298 0-300 4 0 2-2 12-2 20 0 26-38 22 304 22h296zM788 560c6-6 6-32 0-38l-2-4h-296c-274 0-296 0-300 4-6 4-6 34 0 40 2 2 32 2 300 2h296zM604 420c4-8 2-34-2-38s-36-4-206-4c-186 0-202 0-206 4-4 2-4 6-4 18 0 10 2 18 2 20 2 4 6 4 208 4h204z" />
<glyph unicode="&#x57;" glyph-name="archive" data-tags="archive" d="M164 956c0-6-4-12-10-14-2-2-6-6-8-10-2-2-6-6-8-6-2-2-6-6-8-8-2-4-6-8-8-10-2 0-6-4-8-6-2-4-6-8-8-8-2-2-6-6-8-8-2-4-6-8-8-8-2-2-6-6-8-8-4-6-6-8-10-8l-8-2v-922h896v922l-8 2c-4 0-6 2-10 8-2 2-6 6-8 8-2 0-6 4-8 8-2 2-6 6-8 8-2 0-6 4-8 8-2 2-6 6-8 6-2 2-6 6-8 10-2 2-6 6-8 8-2 0-6 4-8 6-2 4-6 8-8 10-6 2-10 8-10 14v4h-696zM894 768l4-4v-156c0-154 0-154-2-158-4-4-6-4-384-4-380 0-380 0-384 4-2 4-2 4-2 156-2 98 0 154 0 158 2 2 4 6 6 6 2 2 116 2 380 2h378zM892 388c8-4 8-2 8-162 0-162 0-160-8-162-4-2-756-2-760 0-8 2-8 0-8 162 0 130 0 152 4 156 0 2 2 4 4 6 4 0 756 0 760 0zM390 636c-4-4-4-50 0-54 2-2 16-2 122-2s122 0 122 2c4 4 4 50 0 54-2 2-242 2-244 0zM390 250c-2 0-2-8-2-24s0-24 2-26c2-2 16-2 122-2s122 0 122 2c2 2 4 10 4 26s-2 24-4 24c0 4-16 4-122 4s-120 0-122-4z" />
<glyph unicode="&#x58;" glyph-name="unarchive" data-tags="unarchive" d="M218 932c0-6-2-8-6-12-2 0-4-2-6-6-2-2-4-4-6-6-2 0-6-4-8-8-2-2-4-6-6-6 0 0-4-2-6-6s-6-6-8-6c0-2-4-4-6-6-2-4-4-6-6-8-2 0-6-4-8-8-4-4-4-4-8-4h-4v-486l-12-20-10-18h-30v-396h848v396h-30l-12 18-10 20v486h-6c-2 0-4 0-8 4-2 4-6 8-8 8-2 2-4 4-6 8-2 2-4 4-6 6-2 0-4 2-6 6-4 4-6 6-8 6 0 0-4 4-6 6-2 4-4 8-6 8-2 2-6 4-8 6 0 4-4 6-6 6-4 4-6 6-6 12v2h-586zM828 774c0 0 0-2 0-4 2 0 2-58 2-128v-128l-4-2c-2-2-18-2-316-2-306 0-312 0-314 2s-2 10-2 130c0 70 0 128 0 128 0 2 2 4 4 4s630 0 630 0zM800 436c2 0 6-6 8-14 4-6 12-20 20-32 16-28 28-50 30-52l2-4h-348c-278 0-348 0-348 2 2 0 8 12 16 24 6 14 16 30 18 34 12 20 22 38 22 40 2 4 2 4 290 2 160 0 290 0 290 0zM886 128v-136h-748v272h748zM410 668c-4-2-6-6-6-26s0-20 4-24l2-2h202l4 2c2 4 2 4 2 24s0 24-6 26c-4 2-198 2-202 0zM362 170c-4-4-4-6-4-46 0-30 0-40 2-42s300-2 302 0c2 2 2 12 2 42 0 40 0 42-2 46l-2 2h-296z" />
<glyph unicode="&#x59;" glyph-name="center-on" data-tags="center-on" d="M86 956c-42-12-72-42-82-82-4-10-4-42-4-134v-122h114v228h228v114h-122c-90 0-126-2-134-4zM682 902v-56h228v-228h114v128l-2 128-8 20c-14 26-30 42-56 56l-20 8-128 2h-128zM470 672c-46-10-86-30-118-64-28-28-44-54-56-90-8-26-10-28-10-70s2-44 10-70c12-34 28-62 54-88 46-46 98-68 162-68s116 22 160 66c44 44 66 96 66 160s-22 116-68 162c-26 26-54 42-88 54-24 8-30 8-64 10-20 0-42 0-48-2zM0 150l2-128 8-20c6-12 16-24 24-32s20-18 32-24l20-8 128-2h128v114h-228v228h-114zM910 164v-114h-228v-114h128l128 2 18 8c24 12 44 32 56 56l10 20 2 128v128h-114z" />
<glyph unicode="&#x5a;" glyph-name="zoom-to" data-tags="zoom-to" d="M494 956c-14-6-14-4-14-120 2-96 2-102 6-108 4-12 12-16 26-18 16 0 26 4 30 14 4 8 4 14 4 112 0 102 0 106-4 112-2 4-8 8-10 10-10 4-30 2-38-2zM388 844c-26-8-50-18-76-30-94-48-158-122-192-224-12-30-10-46 2-54 6-4 10-4 16-4 14 2 18 8 32 46 18 50 30 70 70 116 20 24 32 34 56 52 28 20 72 40 108 50 10 2 20 6 22 8 6 6 10 16 6 26-4 16-18 20-44 14zM604 846c-8-6-12-12-12-24 0-14 4-18 30-26 52-16 102-42 136-72 14-14 50-56 64-78 14-18 20-36 34-70 4-14 10-30 12-32 12-18 38-14 44 6 2 10 0 26-12 56-44 114-128 194-246 232-28 10-40 12-50 8zM480 616c-34-8-64-24-88-48-20-20-34-42-42-68-6-18-6-20-6-52s0-34 6-52c8-26 22-48 40-68 36-34 74-50 122-50s86 16 120 50c34 34 50 72 50 120s-16 86-50 122c-20 18-42 32-68 40-16 6-22 6-46 8-16 0-32-2-38-2zM20 480c-4 0-10-4-12-8-6-6-6-8-8-20 0-16 2-24 10-32l6-4h106c96 0 106 0 112 4 12 6 16 12 16 26 0 20-10 30-32 34-16 2-188 2-198 0zM808 480c-22-2-34-14-34-32 0-6 2-12 4-18 6-14 2-14 122-14 106 0 108 0 112 4 8 6 12 14 12 28s-4 24-14 30c-4 2-12 2-96 4-52 0-98-2-106-2zM880 364c-10-4-14-10-24-42-16-40-26-62-44-86-22-28-48-58-62-70-38-30-84-54-138-70-14-2-20-10-20-24 0-18 14-26 34-22s54 16 82 30c80 40 138 98 176 176 16 32 28 70 28 82 0 20-14 30-32 26zM124 362c-14-8-16-24-6-54 30-84 74-146 144-196 34-24 112-58 142-62 14 0 20 2 26 10 4 6 4 10 4 16-2 14-6 18-30 26-48 12-98 38-132 68-16 14-44 44-62 70-18 22-28 42-40 80-6 14-12 30-14 32-8 10-22 14-32 10zM496 182c-4-4-8-8-10-14-4-6-4-12-6-110 0-96 0-102 4-108 4-10 14-14 28-14 16 0 24 4 30 12 4 6 4 10 4 108v102l-6 10c-2 6-8 12-10 14-10 6-26 6-34 0z" />
<glyph unicode="&#x5b;" glyph-name="axe-big" data-tags="axe-big" d="M116 714c-62-80-114-146-114-146 0-2 176-150 178-150s14 52 30 118c16 66 28 120 28 120 2 2 16-6 24-12 30-22 158-146 154-148-2-2-34-2-76-2h-72v-84h130l-16-16c-8-8-44-42-80-74-34-34-76-74-92-88-16-16-54-52-84-80l-54-52 4-4c8-6 86-70 86-70 0 2 32 34 68 74 102 108 212 228 226 242l12 12v-144h84v72l2 72 12-12c12-14 124-134 224-242 36-40 68-72 68-74 2 0 80 64 86 70l4 4-54 52c-30 28-66 64-84 80-16 14-58 54-92 88-34 32-70 66-80 74l-16 16h130v84h-72c-40 0-74 0-76 2-4 2 124 126 154 148 10 6 24 14 24 12 0 0 14-54 28-120 16-66 30-118 30-118 2 0 178 148 178 150s-226 292-228 292c-2 2-88-92-88-94s2-6 6-10l6-6-20-26c-38-54-132-166-140-166 0 0-2 28-2 68v68h-84v-140l-14 16c-34 34-94 108-128 154l-18 26 6 6c2 4 6 8 4 10 0 2-86 96-86 94-2 0-54-64-116-146z" />
<glyph unicode="&#x5c;" glyph-name="weather-partly-cloudy-day-icon" data-tags="weather-partly-cloudy-day-icon" d="M340 940c-4-4-6-8-8-10-2-4-2-116 0-122s2-6-12-8c-8-2-22-4-28-8-8-2-16-4-16-4s-2 2-2 6c-4 8-54 94-60 102-18 16-44 2-40-22 0-8 50-94 58-104 4-4 6-6 4-6s-26-22-34-32c-8-10-8-10-10-6-4 4-78 48-98 58-18 8-36-2-36-20 0-12 4-18 14-24 22-14 90-52 92-52 8 0 8-4 4-18-4-8-6-22-8-30-2-12-2-14-6-12-2 2-28 2-62 2-50 0-58 0-64-4-8-4-12-10-12-20s6-20 12-22c8-4 114-4 124-2 6 2 6 2 8-16 2-10 6-22 10-30l4-12h-6c-4 0-98-54-104-60-2-2-4-8-6-14 0-8 0-12 4-16 6-8 14-10 24-10 6 2 96 52 104 58 2 2 4 6 6 10 0 6 2 8 40 30l24 14-8 16c-12 22-14 38-14 62 4 36 22 68 54 90 16 10 34 16 54 18 22 0 38-2 60-12 18-10 30-20 44-38 4-6 10-12 10-12s14 8 28 18l28 18 8-6c12-8 16-6 66 22 54 32 58 34 60 44 6 16-8 34-24 30-10 0-100-52-108-60l-4-4-4 6c-8 10-16 18-28 28-10 10-10 10-6 12 2 2 16 26 30 52 32 52 34 60 26 72s-24 14-36 4c-2-2-18-26-32-50-24-44-30-56-28-58 0-2-6 0-16 4s-22 6-30 8c-12 2-14 4-12 6 2 4 2 104 2 116-2 6-4 10-8 16-6 4-8 6-18 6-6 0-10-2-14-4zM652 684c-40-2-82-18-116-40-18-12-52-46-62-64-6-8-10-16-10-16s-8 2-16 2c-18 2-48 0-68-6-64-18-118-70-136-134l-4-16h-14c-44-6-80-22-106-52-72-78-46-206 50-250 34-16 6-14 348-16 214 0 314 0 328 2 48 4 88 24 120 56 24 24 42 52 52 86 6 20 8 62 4 88-10 58-48 110-102 140-12 8-14 8-14 16-4 18-12 48-18 62-32 70-96 124-170 138-20 4-50 6-66 4zM714 598c52-18 94-60 108-112 2-14 4-38 2-60v-12l20-8c12-4 28-8 32-10 24-12 44-32 56-54 6-12 12-38 12-50 0-54-38-102-90-116-10-2-50-2-324-2h-312l-14 6c-30 16-50 52-44 84 6 36 36 62 70 64 14 0 18 0 52-10 22-6 38-10 40-10 0 2 0 16-2 36-4 30-4 34-2 48 12 58 66 98 122 94 10-2 26-6 42-10 14-4 26-8 26-8 2 0 6 12 12 26 6 12 14 30 18 36 20 34 56 60 96 70 20 6 58 4 80-2z" />
<glyph unicode="&#x5d;" glyph-name="dta" data-tags="dta" d="M122 798c-30-6-54-20-76-40-14-14-22-26-30-44-16-32-14-16-14-266 0-254-2-234 14-270 20-38 56-68 98-80 12-2 32-4 398-4s386 2 398 4c42 12 78 42 98 80 16 36 16 16 16 270s0 234-16 268c-20 40-54 68-96 82-12 2-34 2-394 4-334 0-384 0-396-4zM282 590c52-14 86-46 100-94 4-20 4-70-2-92-22-82-90-116-218-108-20 0-38 2-38 2-2 2-2 60-2 148 0 114 0 144 2 144 8 4 44 6 90 6 44-2 54-2 68-6zM644 566v-28h-80v-240h-68v240h-80v58h228zM874 450c24-78 44-146 44-148l2-4h-74l-6 22c-4 12-8 28-12 38l-4 16h-84l-2-10c-2-4-6-22-10-38l-8-28h-72l2 8c2 6 22 72 46 148l42 140h46l44-2zM194 542c-4 0-4-6-4-96l2-98h16c40-2 70 12 88 36 4 6 8 16 12 26 4 12 4 18 4 40 0 20 0 28-4 38-14 38-42 56-90 56-12 0-22 0-24-2zM776 522c-4-16-22-82-26-94 0-4 2-4 32-4 26 0 32 0 32 2-2 6-22 76-28 94l-6 22z" />
<glyph unicode="&#x5e;" glyph-name="master-copy" data-tags="master-copy" d="M472 728c-2 0-4 0-6 0h-282c-18 0-32-14-32-32v-656c0-18 14-32 32-32h496c18 0 32 14 32 32v442c2 12-2 24-12 32l-202 202c-8 8-16 12-26 12zM216 664h224v-172c-2-10 2-20 10-28 0 0 0 0 0 0s0 0 0 0c6-6 18-10 28-8h170v-384h-432zM504 618l98-98h-98zM632 888c-2 0-4 0-6 0h-282c-8 0-16-4-22-10s-10-14-10-22v-88h64v56h224v-130l78-78h130v-384h-56v-64h88c8 0 16 4 22 10s10 14 10 22v442c2 12-4 24-12 32l-204 202c-6 8-14 12-24 12zM664 778l98-98h-98z" />
<glyph unicode="&#x5f;" glyph-name="alarm-ringing" data-tags="alarm-ringing" d="M490 886c-14-12-14-98 0-108 6-4 28-10 50-12 86-10 166-66 204-146 18-36 20-52 24-196l4-156 68-108h-656l36 60 36 58v134c0 76 4 148 8 164 14 52 58 114 104 146 56 38 60 50 40 70l-16 16-40-20c-54-30-100-82-130-146-26-54-26-54-28-202l-4-146-46-78c-74-120-74-120 110-120 116 0 138-2 138-12 0-6 14-26 30-44 52-54 124-54 178 0 18 18 32 38 32 44 0 10 20 12 138 12 184 0 184 0 110 120l-46 78-4 146c-2 148-2 148-28 202-34 72-80 120-148 154-30 16-62 28-70 28-28 0-40 10-40 32 0 24-12 40-32 40-8 0-16-4-22-10z" />
<glyph unicode="&#x60;" glyph-name="partly-cloudy" data-tags="partly-cloudy" d="M632 860l-48-140-46 140c-8 26 6 54 32 62s52-4 62-30c4-12 2-22 0-32zM882 718l-132-66 66 132c12 24 42 34 66 22s34-42 22-66c-4-10-12-18-22-22zM960 438l-142 48 142 46c24 10 52-4 62-30 8-26-6-54-32-64-10-2-22-2-30 0zM354 784l66-132-132 66c-26 12-36 42-24 66 14 24 42 34 68 22 10-6 16-14 22-22zM784 422c8 20 12 42 12 64 0 116-96 210-212 210-62 0-118-28-156-72-2 2-4 2-6 2-84 0-158-36-210-94-12 4-22 4-32 0-26-8-40-36-32-62 2-8 8-14 14-20-14-32-22-68-22-104 0-2 0-4 0-6-80-22-140-94-140-182 0-102 84-186 188-186h514c128 0 234 104 234 234 0 98-64 184-152 216zM584 602c66 0 118-52 118-116 0-18-4-34-12-48-16 0-34-4-52-8-24 62-74 112-138 136 20 22 52 36 84 36zM702 64h-514c-52 0-94 42-94 94s42 94 88 94h68l-12 56c-2 12-4 24-4 38 0 102 84 186 188 186 0 0 2 2 2 2 90-4 164-66 180-154 2-4 2-6 2-8 6-20 24-34 44-34 6 0 10 0 14 2 14 4 26 6 38 6 78 0 140-64 140-140 0-78-62-142-140-142z" />
<glyph unicode="&#x61;" glyph-name="athlete-1" data-tags="athlete-1" d="M702 872c-40-14-64-50-62-90 2-30 22-56 50-70 14-6 16-8 34-8 24 0 36 4 52 18 24 16 36 42 34 72-2 32-18 58-48 72-14 6-16 6-34 8-12 0-22-2-26-2zM452 736c-20-4-28-8-100-44l-72-36 18-38c10-20 18-38 20-38 0 0 32 16 72 36 62 30 74 36 82 36s52-12 56-14c0 0-22-38-46-84-52-90-56-96-54-122 2-18 8-34 18-50 8-10 20-18 78-60 38-28 68-52 70-54 6-14 6-14-36-128-24-58-42-110-44-112l-2-6h90l36 92c20 50 38 98 40 106 8 28 4 60-8 88-6 12-12 20-54 60l-46 48 36 64c20 36 38 66 38 66 0 2 6-10 14-22 10-22 14-28 26-40 18-18 40-30 64-36 14-4 22-4 84-4h68v86h-146l-4 6c-4 2-16 26-30 52-34 68-40 74-108 106-54 26-104 42-132 42-10 2-24 0-28 0zM400 340c-18-22-10-20-128-20h-102v-42l2-44h104c102 0 104 0 118 6 20 6 38 16 52 28 12 10 32 34 30 36-2 4-66 50-66 50s-6-6-10-14z" />
<glyph unicode="&#x62;" glyph-name="chevron-up" data-tags="chevron-up" d="M512 704l-320-320 128-128 192 192 192-192 128 128z" />
<glyph unicode="&#x63;" glyph-name="dollar" data-tags="dollar" d="M556 502v102c34-8 66-24 94-48 2-2 4-2 8-2 2 0 6 2 8 4l44 62c2 2 2 4 2 8 0 2 0 6-4 8-40 38-92 60-152 66v60c0 6-6 12-12 12h-46c-8 0-12-6-12-12v-58c-102-10-162-76-162-150 0-102 84-132 162-152v-116c-50 10-92 36-118 64 0 0-2 0-2 0s0 2 0 2c-2 0-4 2-8 2s-8-2-10-6l-42-64c-2-2-2-4-2-6 0-4 0-8 4-10 40-42 98-72 178-78v-56c0-6 4-12 12-12h46c6 0 12 6 12 12v56c110 12 164 76 164 158 0 104-86 134-164 154zM486 518c-32 10-52 22-52 44 0 24 18 42 52 48zM556 286v100c32-10 56-22 56-48 0-24-18-46-56-52z" />
<glyph unicode="&#x64;" glyph-name="list-ordered" data-tags="list-ordered" d="M448 384h448v128h-448zM448 128h448v128h-448zM448 768v-128h448v128zM208 512h78v256h-36l-86-24v-50l44 2zM318 306c0 36-12 78-96 78-34 0-64-6-84-16l2-66c20 10 42 14 66 14 26 0 32-10 32-28 0-26-30-58-110-112v-50h192v68l-90-2c48 30 86 66 86 112z" />
<glyph unicode="&#x65;" glyph-name="bin" data-tags="bin" d="M362 906c0-48-6-52-110-52-136 0-174-22-162-88l6-52h832l6 52c12 66-26 88-160 88-106 0-112 4-112 52 0 52-4 54-150 54s-150-2-150-54zM170 278v-342h684v682h-108v-276c0-264-2-278-42-278s-42 14-42 278v276h-108v-276c0-264-2-278-42-278s-42 14-42 278v276h-108v-276c0-264-2-278-42-278s-42 14-42 278v276h-108z" />
<glyph unicode="&#x66;" glyph-name="chat" data-tags="chat" d="M616 836c-176 0-318-140-318-316 0-174 140-314 314-318v-134l216 216c64 58 106 142 106 236 0 176-142 316-318 316zM350 214v38h-32c-90 2-164 76-164 166 0 74 50 138 118 158 4 24 10 48 18 70-112-16-200-112-200-228 0-114 86-210 196-226v-132l158 156c-18 12-36 24-54 38z" />
<glyph unicode="&#x67;" glyph-name="more" data-tags="more" d="M512 960c-282 0-512-230-512-512s230-512 512-512c282 0 512 230 512 512s-230 512-512 512zM512 24c-234 0-426 192-426 426 0 236 192 426 426 426 236 0 426-190 426-426 0-234-190-426-426-426zM694 492h-138l2 142c-2 8-6 28-30 28h-34c-24 0-26-24-26-32v-138h-142c-26 0-28-20-28-26v-38c0-4 2-24 28-24h142v-142c-2-26 20-28 24-28h40c4 0 24 2 24 28v142h142c8 0 28 4 28 28v34c0 24-24 26-32 26z" />
<glyph unicode="&#x68;" glyph-name="minus2" data-tags="minus2" d="M512 960c-282 0-512-230-512-512s230-512 512-512c282 0 512 230 512 512s-230 512-512 512zM512 24c-234 0-426 192-426 426 0 236 192 426 426 426 236 0 426-190 426-426 0-234-190-426-426-426zM698 404c8 0 28 4 28 28v34c0 24-24 26-32 26h-368c-26 0-28-20-28-26v-38c0-4 2-24 28-24z" />
<glyph unicode="&#x69;" glyph-name="alert" data-tags="alert" d="M1006 160l-438 766c-12 20-34 32-56 32s-44-12-56-32l-438-766c-12-20-12-44 0-64s32-32 56-32h876c24 0 44 12 56 32s12 44 0 64zM576 192h-128v128h128zM576 384h-128v256h128z" />
<glyph unicode="&#x6a;" glyph-name="arrow-small-down" data-tags="arrow-small-down" d="M576 512v128h-128v-128h-128l192-256 192 256z" />
<glyph unicode="&#x6b;" glyph-name="close2" data-tags="close2" d="M878 806c-198 202-522 206-724 8s-206-522-8-724c198-202 522-206 724-8s206 522 8 724zM808 146c-168-164-438-162-602 6s-162 438 8 602c168 166 436 162 602-6 164-168 160-438-8-602zM676 586l-24 24c-16 18-36 2-40-2l-100-96-98 100c-6 6-22 18-40 0l-24-22c-18-18-2-38 2-42l96-100-100-98c-18-18-6-34-2-38l26-28c4-4 20-16 38 2l102 98 98-100c18-18 34-6 38-2l28 26c4 4 16 20-2 38l-98 102 100 98c6 6 18 22 0 40z" />
<glyph unicode="&#x6c;" glyph-name="list" data-tags="list" d="M810 234h-298c-48 0-86-38-86-84 0-48 38-86 86-86h298c48 0 86 38 86 86 0 46-38 84-86 84zM810 534h-298c-48 0-86-38-86-86s38-86 86-86h298c48 0 86 38 86 86s-38 86-86 86zM810 832h-298c-48 0-86-38-86-86 0-46 38-84 86-84h298c48 0 86 38 86 84 0 48-38 86-86 86zM320 150c0-60-48-108-106-108-60 0-108 48-108 108 0 58 48 106 108 106 58 0 106-48 106-106zM320 448c0-58-48-106-106-106-60 0-108 48-108 106s48 106 108 106c58 0 106-48 106-106zM320 746c0-58-48-106-106-106-60 0-108 48-108 106 0 60 48 108 108 108 58 0 106-48 106-108z" />
<glyph unicode="&#x6d;" glyph-name="three-bars" data-tags="three-bars" d="M128 768v-128h768v128zM128 384h768v128h-768zM128 128h768v128h-768z" />
<glyph unicode="&#x6e;" glyph-name="mail-read" data-tags="mail-read" d="M640 576h-320v-64h320zM448 704h-128v-64h128zM832 732v100h-140l-180 128-180-128h-140v-100l-128-92v-640h896v640zM256 768h512v-244l-256-212-256 212zM128 512l252-192-252-192zM192 64l254 206 66-50 66 50 254-206zM896 128l-252 192 252 192z" />
<glyph unicode="&#x6f;" glyph-name="arrow-small-up" data-tags="arrow-small-up" d="M512 640l-192-256h128v-128h128v128h128z" />
<glyph unicode="&#x70;" glyph-name="arrow-small-left" data-tags="arrow-small-left" d="M576 512v128l-256-192 256-192v128h128v128z" />
<glyph unicode="&#x71;" glyph-name="arrow-small-right" data-tags="arrow-small-right" d="M704 448l-256 192v-128h-128v-128h128v-128z" />
<glyph unicode="&#x72;" glyph-name="mail" data-tags="mail" d="M64 768v-640h896v640zM832 704l-320-264-320 264zM128 640l252-192-252-192zM192 192l254 206 66-50 66 50 254-206zM896 256l-252 192 252 192z" />
<glyph unicode="&#x73;" glyph-name="less" data-tags="less" d="M512 960c-282 0-512-230-512-512s230-512 512-512c282 0 512 230 512 512s-230 512-512 512zM512 24c-234 0-426 192-426 426 0 236 192 426 426 426 236 0 426-190 426-426 0-234-190-426-426-426zM698 404c8 0 28 4 28 28v34c0 24-24 26-32 26h-368c-26 0-28-20-28-26v-38c0-4 2-24 28-24z" />
<glyph unicode="&#x74;" glyph-name="note" data-tags="note" d="M229.8 877.2c-22.2-8.4-36.4-20.8-46.4-41.2l-6.4-13v-750l6.6-13.4c8.2-16.8 20-28.6 36.4-36.4l13-6.2 184.8-0.6c137.2-0.4 185.4 0.2 187.4 1.8 2.4 2 2.6 7.6 1.6 29.6-1 23.8-1.8 27.6-5.2 30.8-3.8 3.2-15.2 3.4-178.6 3.4-166.4 0-174.6 0.2-177.6 3.6-3.2 3.4-3.4 31.4-3.4 362.8 0 345.2 0.2 359.2 3.6 362.2 3.4 3.2 25.4 3.4 275.8 3.4 261 0 272.2-0.2 275.2-3.6s3.4-15.6 3.4-133.8c0-123.4 0.2-130.2 3.6-133.2 5.4-4.8 54.6-5 59.4-0.2 2.8 2.8 3 17 2.6 141.6l-0.6 138.2-6.4 13.2c-7.8 16-22.2 30-38.2 37.4l-11.4 5.4-286 0.4c-232 0.2-287.4-0.2-293.2-2.2zM316.2 742.8c-3.2-4-4.2-8.2-4.2-16.8s1-12.8 4.2-16.8l4-5.2h196.6c166.4 0 197 0.4 200.4 2.8 3.2 2.4 3.8 5.4 3.8 19.2s-0.6 16.8-3.8 19.2c-3.4 2.4-34 2.8-200.4 2.8h-196.6l-4-5.2zM318.8 664.4c-7.8-5.2-9.6-28.4-2.6-37.2l4-5.2h196.6c166.4 0 197 0.4 200.4 2.8 3.2 2.4 3.8 5.4 3.8 19.2s-0.6 16.8-3.8 19.2c-3.4 2.4-33.8 2.8-200 2.8-108 0-197.2-0.8-198.4-1.6zM317 573c-4.4-4.2-5-6.6-5-18s0.6-13.8 5-18l4.8-5h390.4l4.8 5c4.4 4.2 5 6.6 5 18s-0.6 13.8-5 18l-4.8 5h-390.4l-4.8-5zM911.8 519.2c-8.4-2.2-29.8-17.6-29.8-21.4 0-1-3.8-6.2-8.4-11.6-4.8-5.6-12.4-14.8-17-20.6s-21.2-26.4-36.6-45.6c-15.6-19.2-32.4-40.2-37.6-46.8-5.2-6.4-12.6-15.6-16.4-20.2-3.8-4.8-11-13.8-16-20-5-6-12.6-15.6-17-21s-12-15-17-21.2c-5-6-11.4-14-14.2-17.4-6-7.6-21.2-31.2-27.2-42.4-6.2-11.4-10-24-11.6-38-0.6-6.6-1.6-15.2-2-19s-1.4-11.4-2-17c-2.4-21.6-3.4-30.2-4-35-2-15-2.8-29.4-2-32.2 2.4-7.2 7.2-6.6 42 5.6 7.8 2.8 16.8 5.6 20 6.6 3.4 1 11 3.6 17 6s13.8 5 17 5.8c7 1.8 27.6 12 29.2 14.4 0.6 1 4.2 4 8 6.8 20 14.6 40.4 34.4 55.8 53.8 5 6.4 12.6 16 17 21.4s11.6 14.2 16 19.8c4.4 5.6 10.8 13.4 14.2 17.6 3.2 4 7.8 9.8 10 12.8 2 2.8 18.2 23 35.8 44.6 17.6 21.8 35 43.2 38.6 47.8 3.4 4.4 10.4 13.2 15.4 19.2 31.4 38.2 34 43 33.8 63.4-0.4 23.4-6 32.6-32.8 53.6-5.6 4.4-14 11.2-18.6 15.2-19.2 16.6-37.2 21.2-59.6 15zM958.6 463.8c31.8-25.2 32-27.8 6.6-59.4l-9.6-12.2-5.4 3.4c-2.8 1.8-8.8 6.4-13.4 10.4-4.4 3.8-16.8 13.8-27.4 22s-19.2 15.6-19.4 16.2c0 0.6 4.4 6.4 9.8 13 26.8 32.2 26.6 32.2 58.8 6.6zM877.6 403.6c5.6-4.8 14.8-12.4 20.6-17 6-4.8 15.6-12.4 21.2-17l10.6-8.2-5.4-7.2c-3-4-8-10.4-11.4-14.4-3.4-3.8-10.6-12.8-16.2-19.6-5.4-7-13.2-16.6-17-21.2-3.8-4.8-11-13.8-16-20-5-6-12.6-15.6-17-21s-15.6-19.4-25-31.4c-9.4-11.8-22.8-27.6-30-35.2l-13-13.6-6.4 4.6c-13.8 10-54.6 44-54.6 45.4 0 0.8 3 5.4 6.6 10.2 3.4 4.8 8.2 11 10.4 14 2.2 3.2 7 9 10.6 13.2 3.6 4.4 20.4 25.4 37.6 46.8s40 49.6 50.6 62.8c10.6 13 21.4 26.6 24 30.4s6 6.8 7.4 6.8c1.4 0 7-3.8 12.4-8.4zM721.6 173c4-3.4 10.8-8.8 15.2-11.8l7.6-5.8-6.6-3c-3.8-1.6-9.4-3.6-12.8-4.4-3.2-1-10.8-3.4-16.8-5.8l-10.8-4 1.2 10.4c0.8 5.8 1.8 16.8 2.6 24.8l1.4 14.4 5.8-4.4c3.2-2.4 9.2-7.2 13.2-10.4zM317 185c-4.4-4.2-5-6.6-5-18s0.6-13.8 5-18l4.8-5h136.6c106.2 0 137.8 0.6 141.6 2.6 4.8 2.4 5 3.4 5 20.4s-0.2 18-5 20.4c-3.8 2-35.4 2.6-141.6 2.6h-136.6l-4.8-5z" />
<glyph unicode="&#x75;" glyph-name="heart" data-tags="heart" d="M692 822c-72 0-138-34-180-88-42 54-108 88-180 88-126 0-228-102-228-228-2-136 64-216 116-280l12-14c62-78 256-216 264-222 4-2 10-4 16-4s12 2 16 4c8 6 202 144 264 222l12 14c52 64 118 144 118 280-2 126-104 228-230 228z" />
<glyph unicode="&#x76;" glyph-name="arrow-up" data-tags="arrow-up" d="M512 768l-320-384h192v-256h256v256h192z" />
<glyph unicode="&#x77;" glyph-name="arrow-right" data-tags="arrow-right" d="M832 448l-384 320v-192h-256v-256h256v-192z" />
<glyph unicode="&#x78;" glyph-name="flag" data-tags="flag" d="M868 714c-2 0-4 0-6 0-34-18-74-28-116-28-76 0-146 34-190 90-42 38-98 62-160 62-58 0-112-22-154-58-8 18-26 30-48 30-30 0-54-24-54-54v-644c0-30 24-54 54-54s54 24 54 54v290c34 18 72 26 112 26 78 0 146-34 192-90 42-38 98-62 158-62 66 0 126 28 168 72 4 4 6 8 6 12v338c0 10-8 16-16 16z" />
<glyph unicode="&#x79;" glyph-name="user-contact" data-tags="user-contact" d="M682 618c0-94-76-170-170-170s-170 76-170 170c0 94 76 172 170 172s170-78 170-172zM512 362c-260 0-342-170-342-170v-86h684v86c0 0-82 170-342 170z" />
<glyph unicode="&#x7a;" glyph-name="settings" data-tags="settings" d="M1016 496c0 0-20 6-74 12-64 6-84 30-106 62h-2c-2 6-4 14-8 20-6 38-10 70 32 120 36 42 44 60 44 60-8 20-28 40-28 40s-20 20-40 28c0 0-18-8-60-44-50-42-82-38-120-32-6 4-14 6-20 8v2c-32 22-56 42-62 106-6 54-12 74-12 74-20 8-48 8-48 8s-28 0-48-8c0 0-6-20-12-74-6-64-30-84-62-106v-2c-6-2-14-4-20-8-38-6-70-10-120 32-42 36-60 44-60 44-20-8-40-28-40-28s-20-20-28-40c0 0 8-18 44-60 42-50 38-82 32-120-4-6-6-14-8-20h-2c-22-32-42-56-106-62-54-6-74-12-74-12-8-20-8-48-8-48s0-28 8-48c0 0 20-6 74-12 64-6 84-30 106-62h2c2-6 4-14 8-20 6-38 10-70-32-120-36-42-44-60-44-60 8-20 28-40 28-40s20-20 40-28c0 0 18 8 60 44 50 42 82 38 120 32 6-4 14-6 20-8v-2c32-22 56-42 62-106 6-54 12-74 12-74 20-8 48-8 48-8s28 0 48 8c0 0 6 20 12 74 6 64 30 84 62 106v2c6 2 14 4 20 8 38 6 70 10 120-32 42-36 60-44 60-44 20 8 40 28 40 28s20 20 28 40c0 0-8 18-44 60-42 50-38 82-32 120 4 6 6 14 8 20h2c22 32 42 56 106 62 54 6 74 12 74 12 8 20 8 48 8 48s0 28-8 48zM512 208c-132 0-240 108-240 240s108 240 240 240c132 0 240-108 240-240s-108-240-240-240z" />
<glyph unicode="&#x7b;" glyph-name="locked-form" data-tags="locked-form" d="M244 864c-18-6-32-18-40-38l-4-10v-742l4-10c8-14 20-28 34-34l12-6h360v44h-176c-174 0-176 0-182 6-2 2-6 6-8 10-2 10-2 714 0 724 2 4 6 8 8 10l6 4 270 2c188 0 274 0 278-2s10-4 12-8c4-4 4-6 4-136v-130h46v268l-6 12c-6 14-20 26-34 34l-10 4-282 2c-266 0-282 0-292-4zM336 724v-12h386v24h-386zM336 642v-12h386v24h-386zM336 552v-10h386v22h-386zM780 496c-44-12-86-50-100-94-6-20-8-34-8-78v-42l-6-10c-24-36-36-90-26-134 10-46 32-84 68-110 34-24 68-36 110-36 14 0 30 2 38 2 70 16 126 72 140 144 10 44 0 98-26 134l-6 10v42c0 22 0 46-2 54-6 32-18 56-42 80-20 20-40 32-66 38-20 6-54 6-74 0zM842 442c16-4 28-12 42-24 14-16 22-32 24-54 2-18 2-76 2-76-2 0-6 2-12 6-24 18-42 24-80 24s-54-6-80-24c-6-4-10-6-10-6-2 0-2 58 0 76 2 22 10 38 26 54 22 24 54 34 88 24zM838 220c20-12 22-40 4-54l-6-6v-66l-6-6c-8-8-16-8-24 0l-6 6v66l-6 6c-20 18-12 52 14 60 8 2 22 0 30-6z" />
<glyph unicode="&#x7c;" glyph-name="subscribe" data-tags="subscribe" d="M62 790v-86h30c146-8 282-56 398-142 120-88 210-212 256-352 24-66 38-152 38-212v-20h174v12c-2 6-2 24-2 40-4 72-20 158-46 234-88 264-296 474-556 564-88 30-192 48-274 48h-18zM62 484v-86h14c10 0 26-2 40-4 154-20 284-122 338-270 14-38 26-96 26-132v-14h172v30c-4 104-40 208-100 298-102 156-278 256-458 264h-32zM166 216c-58-6-104-58-104-118 0-34 12-62 38-86 36-34 84-44 130-22 74 32 94 128 38 188-26 28-60 42-102 38z" />
<glyph unicode="&#x7d;" glyph-name="ics" data-tags="ics" d="M122 798c-30-6-54-20-76-40-14-14-22-26-30-44-16-32-14-16-14-266 0-254-2-234 14-270 20-38 56-68 98-80 12-2 32-4 398-4s386 2 398 4c42 12 78 42 98 80 16 36 16 16 16 270s0 234-16 268c-20 40-54 68-96 82-12 2-34 2-394 4-334 0-384 0-396-4zM548 596c18-4 32-8 32-12 0-2-12-50-12-52-2 0-6 2-14 4-6 2-18 4-28 6-54 6-92-18-104-62-10-34-4-74 14-98 26-32 64-40 126-24 6 0 6 0 10-22 2-12 4-24 4-26 2-14-92-22-130-10-52 14-86 52-98 104-4 22-2 70 4 88 6 20 16 40 30 54 20 26 60 46 98 52 16 2 52 0 68-2zM796 594c12-4 24-6 28-10 0 0-2-12-8-28-6-22-8-26-10-26-2 2-8 4-14 6-44 16-88 6-88-22 0-14 10-22 46-36 60-24 82-46 86-86 2-48-28-84-80-96-22-4-72-2-94 4-20 4-30 10-30 14s12 52 14 52c0 0 8-2 16-6 20-6 36-10 54-10 22 0 32 2 42 10 6 6 6 8 8 18 0 10 0 12-4 18-6 8-26 20-52 28-32 12-56 30-68 52-4 10-4 12-4 34 0 20 0 24 4 34 14 28 44 48 82 54 16 2 52 0 72-4zM278 446v-148h-68v296h68z" />
<glyph unicode="&#x7e;" glyph-name="csv" data-tags="csv" d="M122 798c-30-6-54-20-76-40-14-14-22-26-30-44-16-32-14-16-14-266 0-254-2-234 14-270 20-38 56-68 98-80 12-2 32-4 398-4s386 2 398 4c42 12 78 42 98 80 16 36 16 16 16 270s0 234-16 268c-20 40-54 68-96 82-12 2-34 2-394 4-334 0-384 0-396-4zM324 596c18-4 32-8 32-12 0-2-12-50-12-52-2 0-6 2-14 4-6 2-18 4-28 6-54 6-92-18-104-62-10-34-4-74 14-98 26-32 64-40 126-24 6 0 6 0 10-22 2-12 4-24 4-26 2-14-92-22-130-10-52 14-86 52-98 104-4 22-2 70 4 88 6 20 16 40 30 54 20 26 60 46 98 52 16 2 52 0 68-2zM562 594c12-4 24-6 28-10 0 0-2-12-8-28-6-22-8-26-10-26-2 2-8 4-14 6-44 16-88 6-88-22 0-14 10-22 46-36 60-24 82-46 86-86 2-48-28-84-80-96-22-4-72-2-94 4-20 4-30 10-30 14s12 52 14 52c0 0 8-2 16-6 20-6 36-10 54-10 22 0 32 2 42 10 6 6 6 8 8 18 0 10 0 12-4 18-6 8-26 20-52 28-32 12-56 30-68 52-4 10-4 12-4 34 0 20 0 24 4 34 14 28 44 48 82 54 16 2 52 0 72-4zM732 516c18-62 32-114 40-146 0-4 4 6 10 32 6 22 20 74 32 116l22 76h74l-36-104c-18-56-40-124-50-148l-14-44h-80l-4 12c-6 18-88 274-88 280l-2 4h38l36-2z" />
<glyph unicode="&#xe000;" glyph-name="bed" data-tags="bed" d="M342 448c0-56-46-102-102-102-58 0-104 46-104 102 0 58 46 102 104 102 56 0 102-44 102-102zM342 346c182 0 362 0 544 0-192 186-350 178-544 0zM956 482v-204h-888v340h-68v-544h68v68h888v-70h68v410z" />
<glyph unicode="&#xe001;" glyph-name="save" data-tags="save" d="M108 884c-10-4-28-24-32-34-2-12-2-792 0-804 4-12 22-30 34-34s792-4 804 0c12 4 30 22 34 34 2 6 2 74 2 286 0 308 0 288-12 318-4 8-10 18-14 24-8 10-150 156-174 176-16 14-44 28-64 32-10 4-44 4-292 4-196 0-280-2-286-2zM220 688c0-122 0-126 4-134 6-12 16-22 28-28l10-4h356l10 4c10 6 20 16 26 26 2 6 4 16 4 134 0 108 0 128 4 128 0 0 8-2 16-6l16-4 82-84c46-46 86-86 90-90 2-4 6-14 8-20 4-12 4-16 4-270v-258h-74v126c0 122 0 126-4 134-6 12-14 22-26 28l-10 4h-502l-10-4c-12-6-22-16-28-28-4-8-4-12-4-134v-126h-74v732h74zM578 808l8-6v-196l-8-6-6-6h-120l-12 12v196l12 12h120zM732 192v-110h-440v220h440z" />
<glyph unicode="&#xe002;" glyph-name="inactive" data-tags="inactive" d="M484 920c-66-8-130-40-172-90-84-96-88-238-10-338 26-34 66-64 102-80l6-2v46l-10 4c-14 8-32 22-44 34-36 34-58 76-66 124-4 18-4 58 0 76 8 46 30 88 64 122 32 32 68 50 114 60 14 4 20 4 44 4 22 0 28 0 40-2 48-10 84-30 116-62 78-74 92-192 32-284-18-28-48-56-76-72l-10-4v-46l6 2c26 10 56 32 80 54 22 22 36 44 50 72 14 26 20 48 26 78 2 16 2 62 0 80-6 28-12 52-26 76-38 78-110 132-198 146-14 2-54 4-68 2zM492 450v-164h40v328h-40zM718 178c-18-4-30-10-40-20-14-14-20-32-20-54 0-12 4-22 12-30 10-12 22-18 62-26 32-8 40-12 50-16 6-4 10-6 12-12s4-8 4-16c0-14-2-20-10-26-12-10-26-14-46-14-22 0-32 4-44 12-8 6-16 20-18 34v8h-30v-10c4-34 26-60 62-68 10-2 14-2 32-2 16 0 22 0 30 4 36 10 52 28 54 58 2 20-4 40-16 52-10 8-22 12-62 22s-48 14-54 20c-6 4-8 10-8 20 0 16 10 30 26 34 8 2 12 4 26 2 20 0 28-2 38-10 6-6 10-12 14-26l2-8h14l14-2v12c-2 30-22 50-56 60-10 2-36 4-48 2zM282 172c-2-4-86-226-86-228 0 0 8 0 16 0h16l24 68h90l8-20c4-10 8-26 12-34l4-14h18c16 0 16 0 16 2s-18 52-40 112c-22 62-42 112-42 114s-2 2-18 2c-16 0-18 0-18-2zM316 88c10-26 16-48 16-48 0-2-16-2-34-2-28 0-36 0-36 2 2 0 8 24 18 50s18 46 18 46c0 0 8-20 18-48zM432 100c0-82 0-90 6-110 8-26 26-42 54-50 14-4 46-4 60 0 28 8 46 26 54 52 6 16 6 26 6 106v76h-30l-2-80c0-86 0-88-8-102-8-18-30-28-58-26-24 2-38 12-48 36-2 8-2 10-2 90l-2 82h-30z" />
<glyph unicode="&#xe003;" glyph-name="marker-a" data-tags="marker-a" d="M488 722c-2-2-10-2-16-2-54-8-110-30-158-68-12-10-38-36-50-48-36-48-58-100-66-158-2-16-2-64 0-80 8-60 30-110 66-158 12-14 38-38 50-50 48-36 98-58 158-66 16-2 64-2 80 0 60 8 110 30 158 66 12 12 38 36 50 50 36 48 58 98 66 158 2 16 2 64 0 80-8 58-30 110-66 158-12 12-38 38-50 48-46 36-98 58-154 66-12 2-58 4-68 4zM548 550c2-2 20-56 42-116 22-62 42-122 46-134l8-20h-64l-8 28-10 28h-100l-20-56h-30c-16 0-30 0-30 0s22 62 50 138l48 138h66zM496 440c-10-30-18-54-18-54 0-2 4-2 34-2 18 0 34 0 34 2 0 0-32 100-32 102-2 2-8-18-18-48z" />
<glyph unicode="&#xe004;" glyph-name="marker-b" data-tags="marker-b" d="M488 722c-2-2-10-2-16-2-54-8-110-30-158-68-12-10-38-36-50-48-36-48-58-100-66-158-2-16-2-64 0-80 8-60 30-110 66-158 12-14 38-38 50-50 48-36 98-58 158-66 16-2 64-2 80 0 60 8 110 30 158 66 12 12 38 36 50 50 36 48 58 98 66 158 2 16 2 64 0 80-8 58-30 110-66 158-12 12-38 38-50 48-46 36-98 58-154 66-12 2-58 4-68 4zM570 552c30-6 50-24 56-52 4-16 2-34-4-48-4-8-14-18-22-22-2 0-4-2-4-2s4-4 8-6c10-4 22-16 26-26 12-22 10-54-4-76-10-16-26-30-42-34-16-6-18-6-98-6l-76-2v278h74c68 0 74 0 86-4zM466 478v-32h42c40 2 40 2 48 4 12 6 16 14 16 28 0 10-4 18-10 22-8 6-16 8-58 8h-38zM466 364v-38h32c18 0 36 2 42 2 26 2 36 12 38 34 2 12-2 20-8 28-10 10-14 10-62 10h-42z" />
<glyph unicode="&#xe005;" glyph-name="marker-c" data-tags="marker-c" d="M488 722c-2-2-10-2-16-2-54-8-110-30-158-68-12-10-38-36-50-48-36-48-58-100-66-158-2-16-2-64 0-80 8-60 30-110 66-158 12-14 38-38 50-50 48-36 98-58 158-66 16-2 64-2 80 0 60 8 110 30 158 66 12 12 38 36 50 50 36 48 58 98 66 158 2 16 2 64 0 80-8 58-30 110-66 158-12 12-38 38-50 48-46 36-98 58-154 66-12 2-58 4-68 4zM558 552c22-6 36-14 52-30 14-14 26-38 28-56v-6h-58l-2 6c-4 16-16 32-32 38-6 2-8 2-24 2-18 0-18 0-28-4-26-12-40-46-40-92 0-32 8-56 22-74 14-14 34-20 54-18 24 4 38 16 46 40l4 12h28c16 0 28 0 28-2 2 0-2-18-8-28-10-28-32-52-58-64-14-6-24-8-44-8-22 0-36 2-54 8-16 6-24 12-38 24-20 20-32 44-36 76-4 18-4 54 0 72 6 36 22 64 44 84 12 8 20 14 34 18 18 6 24 6 48 6 18 0 22 0 34-4z" />
<glyph unicode="&#xe006;" glyph-name="marker-d" data-tags="marker-d" d="M488 722c-2-2-10-2-16-2-54-8-110-30-158-68-12-10-38-36-50-48-36-48-58-100-66-158-2-16-2-64 0-80 8-60 30-110 66-158 12-14 38-38 50-50 48-36 98-58 158-66 16-2 64-2 80 0 60 8 110 30 158 66 12 12 38 36 50 50 36 48 58 98 66 158 2 16 2 64 0 80-8 58-30 110-66 158-12 12-38 38-50 48-46 36-98 58-154 66-12 2-58 4-68 4zM568 548c20-6 32-12 46-26 24-24 36-64 34-112-2-66-30-112-74-128-16-6-22-6-92-6h-68v276h72c70-2 72-2 82-4zM472 414v-92h24c42 0 54 4 68 16 6 6 10 10 14 20 8 16 12 32 12 60 0 52-14 76-44 84-4 0-22 2-42 2h-32z" />
<glyph unicode="&#xe007;" glyph-name="army" data-tags="army" d="M158 892c-10-4-16-10-18-18-4-8-4-36-4-248 2-220 2-240 4-254 20-84 68-156 156-228 48-42 108-80 170-112 34-16 38-16 70 0 26 12 32 16 66 36 56 34 100 66 146 112 62 58 98 120 116 192 2 14 2 34 4 254 0 232 0 240-4 248-2 6-6 12-12 16l-6 4-342 2c-306 0-342 0-346-4zM550 762c4-2 4-6 4-96v-94h92c60 0 94 0 96-2 4-2 4-4 4-50 0-40 0-50-2-52s-32-2-96-2l-92-2-2-92c0-64 0-94-2-96s-12-2-52-2c-46 0-48 0-50 4-2 2-2 36-2 96v92h-94c-90 0-94 0-96 4-2 2-2 22-2 50 0 38 0 46 4 48 2 4 8 4 96 4h92v92c0 84 0 92 4 96 2 4 6 4 48 4 28 0 48 0 50-2z" />
<glyph unicode="&#xe008;" glyph-name="workplace" data-tags="workplace" d="M402 870c-24-8-42-24-52-46l-6-14-2-106h-96c-92-2-96-2-106-6-22-8-42-28-50-50-2-10-2-26-2-266v-256l6-12c8-16 18-30 32-38 22-12-2-12 386-12 384 0 364 0 384 12 14 8 26 22 34 36l8 14v254c0 282 2 262-14 286-10 14-24 26-40 32-10 4-12 4-106 6h-96v108l-8 14c-10 18-22 32-42 40l-12 6-104 2c-96 0-106 0-114-4zM598 746v-42h-172v42c0 22 0 42 2 42 0 2 38 2 84 2l86-2z" />
<glyph unicode="&#xe009;" glyph-name="boat" data-tags="boat" d="M464 732c-50-20-106-70-152-136-50-72-88-156-108-232-6-24-12-60-12-70v-6h288l-4 6c-26 52-36 182-20 306 4 42 18 120 24 134 0 2 0 2-16-2zM512 496v-240h-320v-6c0-14 6-36 14-52 16-34 50-60 88-68 20-4 448-4 470 0 36 8 68 34 86 68 8 16 14 38 14 52v6h-320v480h-32zM576 432v-144h290l-144 144c-80 80-146 144-146 144s0-64 0-144z" />
<glyph unicode="&#xe00a;" glyph-name="forklift-icon-01" data-tags="forklift-icon-01" d="M576 714c-2 0-10-38-20-80-32-146-38-168-44-176-8-10-20-16-80-36-38-12-58-20-62-24l-6-4v-154h48l2 18c10 80 46 122 104 122 30 0 70-18 92-38 20-20 32-52 30-86l-2-16h46v20c2 26 6 42 16 60 28 60 92 76 160 38 34-18 50-50 50-98v-20h46v174c0 140 0 176-2 174-2 0-24-6-50-14s-48-14-50-16c-4 0-4 4-4 78v78l-138 2c-80 0-136 0-136-2zM804 612c0-66 0-66-12-72-8-6-224-74-226-74 0 2 42 194 46 204 0 2 20 2 96 2h96zM294 354v-132h-226v-42h272v308h-46zM512 356c-22-4-36-10-52-26-26-30-32-70-12-106 20-38 68-54 112-40 12 4 22 12 32 24 32 32 30 88 0 122-20 20-50 30-80 26zM546 284c12-8 14-10 14-16s0-8-12-16c-16-12-20-12-28-10-8 4-22 18-22 22s8 18 16 24c10 8 16 8 32-4zM782 356c-16-2-36-12-50-26-42-42-30-116 22-142 64-30 132 12 132 80 0 56-46 94-104 88zM812 288c16-10 18-14 18-20s-2-8-10-14c-6-4-12-10-16-12-6-2-6-2-14 2s-20 18-20 24c0 10 16 26 28 26 2 0 8-2 14-6z" />
<glyph unicode="&#xe00b;" glyph-name="driver-license" data-tags="driver-license" d="M464 958c-128-14-244-72-330-166-124-136-166-328-108-504 26-78 66-144 124-202 82-80 180-130 300-146 22-4 102-4 126 0 98 14 184 50 258 110 102 82 168 200 186 334 4 24 4 104 0 126-16 120-66 218-146 300-80 78-176 128-290 144-24 4-96 6-120 4zM552 830c126-14 236-88 298-202 6-14 22-48 22-50s-162-2-360-2h-360l2 4c8 26 32 70 54 100 80 106 214 164 344 150zM540 506c12-6 24-18 30-32 8-14 8-38 0-54-6-12-18-24-30-30-10-4-14-6-28-6s-18 2-26 6c-14 6-26 18-32 30-6 16-6 40 0 54 8 18 24 32 44 36 10 2 30 0 42-4zM180 442c144-28 252-168 266-344 2-14 2-26 0-26-2-2-50 10-72 18-56 24-98 52-140 96-62 64-100 148-106 240v22h18c10-2 26-4 34-6zM896 426c-6-92-44-176-106-242-42-42-84-72-140-94-22-8-70-20-72-18s2 44 6 70c16 98 68 190 138 242 50 40 108 62 164 64h10z" />
<glyph unicode="&#xe00c;" glyph-name="bank" data-tags="bank" d="M502 938c-26-4-48-12-64-24-44-38-410-340-418-348-18-18-24-34-12-46 12-10-20-10 498-10 308-2 480 0 488 0 30 6 38 22 22 46-10 12-430 360-446 368-20 10-50 16-68 14zM478 474c-84-16-150-82-164-168-20-110 54-216 166-234 138-24 258 96 234 234-18 112-124 188-236 168zM530 390v-14l12-2c6 0 18-4 26-6 10-2 12-4 12-6-2-2-2-6-4-10 0-4-2-10-4-16l-2-10-12 4c-16 6-44 8-54 4-4-2-8-6-10-10-4-12 6-22 36-34 24-8 32-12 42-22s14-16 16-30c2-16 0-32-8-44s-26-24-40-28l-10-2v-34h-34v32l-12 2c-12 0-36 6-42 10-2 2-2 6 2 22 4 14 6 18 8 18s10-4 18-6c40-14 76-2 66 22-4 6-18 16-34 20-14 4-36 16-44 24-10 10-16 22-16 38 0 14 2 22 10 34 6 8 22 20 36 24l10 4v30h32zM96 458c-4 0-6-4-8-6-4-4-4-16-4-182 0-194 0-186 12-192 4 0 18-2 48 0h44l12 12v358l-6 6-8 6h-44c-28 0-44 0-46-2zM836 458c-4-2-6-6-8-8s-2-64-2-182c0-196 0-184 12-190 4 0 18-2 48 0h44l12 12v358l-6 6-8 6h-44c-34 0-44 0-48-2zM20 36c-6-6-6-6-6-38 0-30 0-34 4-38l4-6h982l4 4c2 4 4 8 4 40v36l-12 8h-976z" />
<glyph unicode="&#xe00d;" glyph-name="group" data-tags="group" d="M210 700c-38-8-70-40-78-78-16-66 34-130 102-130 30 0 54 10 76 30 36 36 42 92 14 134-24 36-72 56-114 44zM484 700c-70-14-112-80-96-152 14-74 90-116 166-94 48 16 82 60 86 114 6 86-72 150-156 132zM762 700c-56-14-90-72-76-128 6-22 14-36 30-52 42-42 112-40 152 6 30 32 36 78 16 120-2 6-10 16-20 26-16 16-28 24-48 28-16 4-40 4-54 0zM208 404c-70-8-126-46-158-102l-8-16v-56h88c88 0 88 0 88 4 0 2 4 10 6 18 22 40 68 86 116 112l14 8-14 8c-14 8-42 18-62 22-20 2-52 4-70 2zM756 404c-28-4-58-14-78-26l-8-6 18-10c36-22 74-54 96-86 12-16 22-36 22-42 0-4 6-4 88-4h88v62l-10 16c-24 38-64 70-106 86-30 10-80 14-110 10zM464 360c-88-12-160-58-200-124l-8-12v-74h512v36c0 40 0 40-16 62-38 56-96 92-170 108-14 4-28 4-62 4-24 2-50 0-56 0z" />
<glyph unicode="&#xe00e;" glyph-name="funktion" data-tags="funktion" d="M370 788c-48-6-92-34-120-76-18-28-28-58-28-94 0-76 48-140 124-164 16-4 20-4 46-4s32 0 48 4c46 14 82 44 102 86 14 24 18 42 20 72 2 50-16 94-50 128-16 16-28 24-48 32-28 14-64 20-94 16zM830 768c-42-6-78-34-96-68-4-10-10-22-12-30-4-18-4-52 0-70l4-12-56-56c-66-68-66-68-66-104 0-20 0-22 4-34 8-14 24-30 40-38 10-4 12-6 34-6 34 0 34 0 102 68l56 56 12-4c18-4 52-4 70 0 46 12 80 44 94 92 6 20 6 54 2 74-4 16-18 46-20 46 0 0-20-20-44-44l-44-44-26 6c-14 4-26 6-26 8-2 2-4 14-6 26l-6 24 44 44c24 24 44 44 44 44 0 2-28 14-42 18-18 4-46 6-62 4zM834 700l-30-30 10-48c6-28 10-50 10-50s24-4 50-10l48-10 30 30 30 28v-12c0-44-30-80-72-90-16-4-44-2-64 4l-16 6-62-60c-64-64-70-70-86-70-22 0-42 20-42 42 0 16 6 22 70 86l60 62-4 16c-14 44-8 82 18 110 20 18 38 26 66 26h14zM344 360c-4 0-18-2-30-4-102-14-192-64-246-138-18-24-18-22-18-70l2-42h682v42c0 48 0 46-20 74-52 70-140 118-242 136-20 2-114 4-128 2z" />
<glyph unicode="&#xe00f;" glyph-name="zug" data-tags="zug" d="M270 700c-70-14-112-80-96-152 14-74 90-116 166-94 48 16 82 60 86 114 6 86-72 150-156 132zM548 700c-56-14-90-72-76-128 6-22 14-36 30-52 42-42 112-40 152 6 30 32 36 78 16 120-2 6-10 16-20 26-16 16-28 24-48 28-16 4-40 4-54 0zM788 690c-52-14-80-76-54-124 28-54 100-64 140-20 28 28 34 64 16 100s-60 56-102 44zM764 440c-14-2-36-8-48-16-20-10-20-8-6-16 22-12 36-22 54-40 20-20 40-48 44-62l2-8h144v24c0 20 0 24-4 32-24 44-68 76-120 86-12 2-56 2-66 0zM542 404c-28-4-58-14-78-26l-8-6 18-10c36-22 74-54 96-86 12-16 22-36 22-42 0-4 6-4 88-4h88v62l-10 16c-24 38-64 70-106 86-30 10-80 14-110 10zM250 360c-88-12-160-58-200-124l-8-12v-74h512v36c0 40 0 40-16 62-38 56-96 92-170 108-14 4-28 4-62 4-24 2-50 0-56 0z" />
<glyph unicode="&#xe010;" glyph-name="terminart" data-tags="terminart" d="M298 896c-10-4-14-8-18-16s-4-12-4-68 0-62 4-68c4-6 8-10 12-12 8-6 28-8 42-6 10 2 24 12 26 24 2 10 2 114 0 124-2 8-12 20-22 22s-32 2-40 0zM692 896c-10-2-22-12-26-22l-6-10v-104l6-10c8-18 28-26 46-22 14 4 28 18 32 30 2 12 2 94 0 106-4 14-16 28-28 30-12 4-14 4-24 2zM76 808c-2-2-8-6-10-10s-2-22-4-388c0-380 0-384 4-392 2-6 6-10 10-12 6-4 32-4 434-4 340 0 430 0 434 2 2 2 8 6 10 10l4 6v386c0 384 0 386-4 394-8 12-10 12-92 12h-74v-36c0-34 0-36-8-48-8-18-18-28-36-36-12-6-16-8-36-8s-26 0-38 4c-22 6-40 22-48 46-4 8-4 14-4 44v34h-214v-36c0-34-2-36-8-48-6-16-20-30-36-36-12-6-16-8-36-8s-26 0-38 4c-16 4-30 16-40 28-10 16-12 26-12 64v32h-76c-70 0-76 0-82-4zM234 450v-64h-128v128h64l64-2zM404 450v-64h-128v128h128zM574 450v-64h-128v62c0 36 0 64 2 64 0 2 28 2 64 2h62zM916 450v-64h-128v128h128zM576 278v-64h-130v130h130zM234 278v-64h-128v128h128zM746 278v-64h-128v128h128zM916 278v-64h-128v128h128zM234 108v-64h-56c-60 0-68 0-70 8-2 2-2 30-2 62v58h128zM404 108v-64h-128v128h128zM574 108v-64h-128v128h128zM746 108v-64h-128v128h128zM916 114v-60l-6-4-6-6h-116v128h128z" />
<glyph unicode="&#xe011;" glyph-name="medal" data-tags="medal" d="M218 892c-60-24-88-36-88-38 2-8 138-342 138-342 2 0 6 4 12 8 34 28 88 54 136 62 28 6 26 6 26 10-2 4-134 332-136 334 0 0-40-14-88-34zM650 924c-2-4-32-80-68-170-64-156-68-166-64-166 4-2 14-4 22-4 50-10 100-34 138-64 8-6 12-8 12-8 2 2 32 78 70 172 38 92 68 170 68 170 0 2-38 18-88 38-86 36-88 36-90 32zM448 556c-114-12-208-92-244-200-8-28-12-54-12-88 0-44 8-82 28-122 14-30 32-56 56-80 40-40 86-66 144-78 18-4 26-6 60-6 36 2 42 2 62 6 112 26 194 112 220 224 4 24 4 90 0 114-18 82-66 150-138 192-50 30-116 44-176 38zM504 364l22-62h56l56-2-46-30c-26-18-48-32-48-34 0 0 10-30 24-62 12-34 22-62 22-64 0 0-6 4-12 8s-30 20-56 36l-44 30-54-38c-30-20-56-36-56-34 0 0 10 28 24 62 12 34 22 62 22 64-2 0-22 16-48 32l-46 30 56 2h56l16 48c26 66 30 78 32 78 0 0 10-28 24-64z" />
<glyph unicode="&#xe012;" glyph-name="rank" data-tags="rank" d="M466 898c-80-8-166-42-230-92-54-42-98-94-128-158-122-246 2-542 262-628 158-54 332-14 454 102 88 84 140 204 140 326 0 104-38 210-106 290-96 114-244 174-392 160zM534 746c38-84 82-180 82-182 2 0 24-2 116-10 70-6 108-10 110-12 0 0-154-120-182-142-2 0 4-24 28-124 18-68 32-124 30-124 0 0-46 28-102 60-56 34-102 62-102 62-2 0-48-28-104-62-56-32-102-60-102-60s12 56 30 124c24 100 30 124 28 124-28 22-182 142-182 142 2 2 40 6 110 12 92 8 116 10 116 10 0 2 14 32 30 70 18 36 34 74 40 82 4 10 10 24 14 34s10 22 14 28c2 8 6 12 6 10 0 0 10-20 20-42z" />
<glyph unicode="&#xe013;" glyph-name="absent" data-tags="absent" d="M302 896c-10-4-14-8-18-16s-4-12-4-68 0-62 4-68c4-6 8-10 12-12 8-6 28-8 42-6 10 2 24 12 26 24 2 10 2 114 0 124-2 8-12 20-22 22s-32 2-40 0zM696 896c-10-2-22-12-26-22l-6-10v-104l6-10c8-18 28-26 46-22 14 4 28 18 32 30 2 12 2 94 0 106-4 14-16 28-28 30-12 4-14 4-24 2zM80 808c-2-2-8-6-10-10s-2-22-4-388c0-380 0-384 4-392 2-6 6-10 10-12 6-4 32-4 434-4 340 0 430 0 434 2 2 2 8 6 10 10l4 6v386c0 384 0 386-4 394-8 12-10 12-92 12h-74v-36c0-34 0-36-8-48-8-18-18-28-36-36-12-6-16-8-36-8s-26 0-38 4c-22 6-40 22-48 46-4 8-4 14-4 44v34h-214v-36c0-34-2-36-8-48-6-16-20-30-36-36-12-6-16-8-36-8s-26 0-38 4c-16 4-30 16-40 28-10 16-12 26-12 64v32h-76c-70 0-76 0-82-4zM238 450v-64h-128v128h64l64-2zM408 450v-64h-128v128h128zM578 450v-64h-128v62c0 36 0 64 2 64 0 2 28 2 64 2h62zM920 450v-64h-128v128h128zM664 490c12-10 22-20 22-20 2 0 12 10 24 20 12 12 22 22 24 22s18-16 18-20c0 0-10-10-20-22-12-12-22-22-22-24 0 0 10-10 22-22 10-12 20-22 20-22 0-4-16-20-18-20s-12 10-24 20c-12 12-22 22-22 22-2 0-12-10-24-22-12-10-22-20-24-20-4 0-18 14-18 18 0 2 10 12 22 24 18 18 20 22 18 26 0 2-10 12-20 22-12 10-20 20-20 22 0 4 14 18 18 18 2 0 12-10 24-22zM580 278v-64h-130v130h130zM238 278v-64h-128v128h128zM322 320c12-10 22-20 22-20 2 0 12 10 24 20 12 12 22 22 24 22s18-16 18-20c0 0-10-10-20-22-12-12-22-22-22-24 0 0 10-10 22-22 10-12 20-22 20-22 0-4-16-20-18-20s-12 10-24 20c-12 12-22 22-22 22-2 0-12-10-24-22-12-10-22-20-24-20-4 0-18 14-18 18 0 2 10 12 22 24 18 18 20 22 18 26 0 2-10 12-20 22-12 10-20 20-20 22 0 4 14 18 18 18 2 0 12-10 24-22zM750 278v-64h-128v128h128zM920 278v-64h-128v128h128zM238 108v-64h-56c-60 0-68 0-70 8-2 2-2 30-2 62v58h128zM408 108v-64h-128v128h128zM578 108v-64h-128v128h128zM750 108v-64h-128v128h128zM920 114v-60l-6-4-6-6h-116v128h128z" />
<glyph unicode="&#xe014;" glyph-name="roman-7" data-tags="roman-7" d="M92 716c0-2 40-124 86-270l88-268h114l92 268c50 146 92 268 92 270s-12 2-52 2h-52l-10-34c-94-290-106-332-118-386-2-10-6-20-6-20s-6 18-10 40c-14 52-28 106-78 268l-38 130-54 2c-42 0-54 0-54-2zM624 448v-270h98v540h-98zM836 716c-2 0-2-122-2-270v-268h100v538l-50 2c-26 0-48 0-48-2z" />
<glyph unicode="&#xe015;" glyph-name="equipment" data-tags="equipment" d="M694 924c0-2 14-14 32-32 36-32 58-56 66-72 6-12 6-28 0-40-6-10-32-38-88-90l-42-40 8-8c4-4 10-10 14-12 14-6 16-4 70 50 28 28 54 52 60 56 12 8 22 10 30 4 12-10 18-36 34-122 4-22 6-42 8-42 0-2 28 10 44 20 22 10 42 28 54 46 4 8 8 14 8 16 0 0-10 12-22 24s-44 44-68 72c-70 78-106 112-148 138-18 12-60 34-60 32zM308 910c-60-30-104-66-186-160-24-26-52-58-66-70l-22-24 8-12c16-22 38-40 62-52 10-6 36-14 38-14 0 0 4 24 10 50 20 94 26 114 40 116 10 4 22-6 64-48 26-24 44-40 46-42 4 0 10 0 14 2 10 2 32 14 32 14 0 2-16 16-34 32-48 42-72 66-78 76-8 18-8 32 4 52 8 10 40 42 72 72 12 12 20 20 20 20s-12-6-24-12zM428 664c-48-4-106-16-134-28-52-22-86-60-100-112-2-14-4-28-6-56-2-62-12-92-36-122-8-10-32-32-38-34-2-2-2-2-2-2 2-2 54-8 90-10 56-4 72-10 92-40 4-6 12-14 18-18l8-6h170c180 0 226 2 248 6 20 4 94 22 94 22s0 4 2 6 2 6-8 18c-20 22-40 56-50 86-12 32-16 56-20 108-4 42-8 60-20 82s-36 48-58 60c-30 16-78 30-134 36-28 4-90 6-116 4zM192 174l-88-88v-26h28l86 84c46 46 84 86 84 86s-6 8-12 18l-12 16zM786 242c-26-6-92-16-126-20-20-2-74-4-120-4-44 0-82-2-82-2-2-2 4-22 12-48s16-54 18-62c6-20 18-46 30-62 14-20 28-30 58-46 26-12 88-36 114-42 26-8 52-4 118 12 18 4 84 28 126 44 50 20 62 28 62 38 0 4-2 10-6 16-14 20-160 172-172 178-8 2-18 2-32-2z" />
<glyph unicode="&#xe016;" glyph-name="course" data-tags="course" d="M256 768c-140-70-254-128-254-128s114-58 256-128l254-128 448 224v-544h64v576l-256 128c-140 70-256 128-256 128s-116-58-256-128zM192 366v-142l320-160 320 160v284l-320-160-320 160z" />
<glyph unicode="&#xe017;" glyph-name="my-location" data-tags="my-location" d="M474 944c-82-12-148-60-184-132-20-40-26-66-26-112 0-78 18-132 126-372 74-164 122-268 122-266 4 4 160 350 190 420 44 104 58 162 58 220 0 44-6 70-24 106-24 48-68 92-116 116-44 20-100 28-146 20zM536 816c44-8 78-40 92-86 4-16 4-46 0-62-8-28-26-52-50-66-48-34-110-28-150 14-48 48-48 120 0 168 30 30 66 42 108 32zM416 162c-108-16-178-54-186-98 0-4 0-12 4-20 2-10 4-14 18-26 12-12 20-18 36-26 114-58 336-58 448 0 68 36 76 84 18 122-34 22-84 40-146 48-12 2-22 4-24 4 0-2-22-48-22-50 0 0 6 0 12-2 18-2 46-8 64-14 20-6 34-14 42-24 6-6 8-10 8-18 0-6-2-10-8-18-16-16-50-28-98-36-38-6-102-6-138 0-50 8-84 20-100 36-6 8-8 12-8 18 0 8 2 12 8 18 14 16 46 30 92 36l26 4-12 26c-8 16-12 24-14 24s-10-2-20-4z" />
<glyph unicode="&#xe018;" glyph-name="location-of-emergency" data-tags="location-of-emergency" d="M422 938c0-2 2-10 2-18 8-38 8-82 0-120-8-42-32-98-64-150-20-30-80-120-82-120 0 0-14 20-30 46-16 24-30 44-32 42s-40-82-62-132c-82-182-92-268-44-348 26-44 66-88 156-162l32-28h30l-6 12c-8 18-16 48-20 66-4 22-4 66 2 90 10 48 30 92 66 152 26 40 44 68 44 68 2 0 16-10 32-24s32-24 32-26c4 0 6 6 12 28 28 86 52 160 54 160 2 2 28-16 52-36 62-52 88-102 100-202 4-38 6-140 4-216 0-38 0-70 0-70 2 0 24 18 54 46 118 104 186 220 192 330 2 28 0 64-6 90-14 66-50 138-104 208-18 22-60 66-78 86-12 10-10 12-26-16-4-10-8-20-8-20-2 0-8 6-16 16-20 20-64 58-128 110-72 60-106 90-134 116-12 14-22 22-24 22z" />
<glyph unicode="&#xe019;" glyph-name="location-of-fire-engine" data-tags="location-of-fire-engine" d="M804 714v-40h-78c-92-2-92-2-108-18-20-20-18-10-20-192v-158h-42v160h-530v-80l42-2-8-10c-10-14-26-50-32-70s-12-54-12-70v-10h48l2 18c2 24 10 50 20 70 38 78 140 98 212 42 34-26 52-62 54-108v-22h328l2 18c10 90 64 144 142 144 26 0 44-4 64-14 30-14 52-42 66-80 6-16 14-52 14-62v-6h40l2 42c2 86-2 140-34 342-6 40-8 54-12 56-6 8-14 10-48 10h-32v80h-80zM916 630c6-4 12-14 14-28s16-126 16-130c0-2-30-2-90-2h-92v162h74c50 0 74 0 78-2zM720 590v-38h-80v78h80zM26 654v-20h6c4-2 10-2 14-2s10 0 12-2l6-2v-76l-36-4-2-18v-20h530v20c0 20 2 18-22 20l-16 2v78h10c4 2 12 2 18 4h8v38h-528zM146 590v-38h-38v78h38zM228 590v-38h-38v78h38zM310 592c0-42 2-38-20-42-18-2-18-2-20 42v38h40zM392 590v-38h-38v78h38zM474 590v-38h-38v78h38zM184 342c-24-6-48-22-60-42-36-56-10-132 52-154 52-18 110 10 130 64 6 16 6 46 2 62-12 34-38 58-72 68-12 4-40 4-52 2zM228 284c36-16 34-68-2-84-8-4-26-2-36 2-30 12-36 54-10 76 12 10 32 12 48 6zM794 340c-18-6-30-14-44-26-18-22-28-44-28-72 0-64 60-112 122-100 34 8 64 34 76 68 6 16 6 50 0 66-12 32-36 54-66 64-16 6-44 6-60 0zM838 286c6-2 12-6 18-12 18-18 18-42 2-60-26-30-76-14-80 26-2 32 28 56 60 46z" />
<glyph unicode="&#xe01a;" glyph-name="location-of-fire-fepot" data-tags="location-of-fire-fepot" d="M480 942c-66-10-124-48-152-102l-8-14h-122v-12c0-6 0-28 0-48s0-40-2-42v-6h-156v-142h942v142h-156l-2 36c0 20 0 44 0 54v18h-126l-6 10c-16 32-50 66-84 84-16 8-38 16-54 20-18 2-58 4-74 2zM40 524v-26h42l44-2v-466h-40c-30 0-42 0-44-2s-2-12-2-36c0-26 0-32 4-34 2-4 48-4 466-4 416 0 464 0 468 4 4 2 4 4 4 34 0 26 0 32-4 34-2 4-8 4-40 4h-38v234l2 232 40 2h40v54h-942zM826 264v-234h-144l2 4c4 4 4 10 4 24v20h34v50h-32v136h44v86l-22 2h-22v12c0 8-2 16-4 22-6 16 6 14-176 14h-164l-6-6c-8-6-12-16-12-30v-12h-18c-10 0-20 0-22-2s-2-12-2-44l2-42h40v-136h-14c-8 0-16 0-18-2-2 0-2-8-2-24l2-24h36v-20c0-14 0-20 4-24l2-4h-142v468h630zM494 374c4-2 4-6 4-50 0-32 0-46-2-48-4-2-142-4-148 0-4 2-4 4-4 48 0 46 0 48 4 50 4 4 14 4 74 4 62 0 70 0 72-4zM672 374c4-2 4-6 4-50s0-46-4-48c-6-4-144-2-148 0-2 2-2 16-2 48 0 40 0 48 4 50 2 4 8 4 72 4s72 0 74-4zM580 228v-18h-150v36h150zM580 186v-16h-150v32h150zM580 142v-14h-150v30h150zM602 60c0-18 2-26 6-28 2-2-42-2-98-2-94 0-100 0-98 4 0 2 2 12 2 24v20h188zM468 460c-2-2-2-10-2-22v-20h90v20c0 18 0 22-4 22-6 4-80 2-84 0z" />
<glyph unicode="&#xe01b;" glyph-name="pdf" data-tags="pdf" d="M0 448v-512h1024v1024h-1024zM530 808c32-16 34-26 26-92-6-50-14-88-28-138l-8-30 6-14c16-32 54-84 88-126l20-22 22 2c42 2 106-8 144-20 26-8 46-20 62-36 18-18 26-34 28-56 2-24-2-36-18-52-16-14-30-20-56-22-28-2-50 6-90 34-26 18-60 46-90 76l-22 24-22-4c-56-8-128-24-176-40l-26-10-20-28c-54-74-94-114-134-134-28-14-52-14-68 2-10 8-12 18-12 40 2 24 10 42 36 66 32 32 82 62 144 86l22 10 16 28c34 56 64 116 84 166l8 26-8 22c-8 24-18 60-24 88-4 26-4 76 0 98 8 36 28 56 58 62 14 2 22 0 38-6zM492 764c-8-6-12-28-12-70 2-26 6-58 10-62 2-4 14 58 20 102 2 24 2 28-2 30s-10 2-16 0zM488 466c-10-24-36-78-50-100-4-10-8-16-8-18 2 0 10 2 20 4 22 8 74 18 100 24 12 0 22 4 22 4 2 0-6 12-16 24-20 24-42 54-52 72-4 6-6 10-6 10s-4-10-10-20zM684 334c56-54 102-84 128-84 18 0 30 8 30 20 0 16-14 32-36 44-20 10-82 24-114 24h-12zM280 234c-26-16-44-30-58-44-10-10-20-28-16-30 2-2 26 12 40 26 20 16 60 60 54 60 0 0-10-6-20-12z" />
<glyph unicode="&#xe01c;" glyph-name="move-left" data-tags="move-left" d="M960 796c-100-156-210-246-332-272-18-4-26-6-62-6-26 0-46 2-52 4-20 4-40 10-52 16l-12 4v206l-202-148c-110-80-202-148-204-148-2-2 34-30 202-152l204-150v206h20c102 8 198 32 276 74 130 68 208 178 230 324 4 18 8 74 8 76-2 0-12-16-24-34z" />
<glyph unicode="&#xe01d;" glyph-name="move-right" data-tags="move-right" d="M42 820c2-4 2-18 4-28 6-118 58-226 144-300 90-78 218-126 366-136h20v-104l2-102 202 150c168 122 204 150 202 152-2 0-94 68-204 148l-200 148-2-102v-104l-12-4c-12-6-32-12-50-16-8-2-28-4-54-4-36 0-44 2-62 6-76 16-148 58-216 126-42 40-76 84-114 144-12 18-24 34-24 34-2 2-2-2-2-8z" />
<glyph unicode="&#xe01e;" glyph-name="hourglass" data-tags="hourglass" d="M78 956c-4-4-4-6-6-30v-28l12-12h62v-34c6-114 40-216 108-306 18-24 66-72 86-86 8-6 16-12 16-12s-6-6-14-12c-18-12-60-52-78-74-72-90-112-200-118-318v-34h-62l-12-12v-28c2-26 2-26 6-30s14-4 434-4c234 0 430 0 432 2 6 2 8 10 8 36 0 24 0 24-6 30l-6 6h-62v34c-4 114-40 214-108 304-18 26-68 76-88 88-8 6-14 12-14 12s6 6 14 10c20 14 70 64 88 88 68 90 104 192 108 306v34h62l12 12v28c0 24-2 26-6 30s-14 4-434 4c-420 0-430 0-434-4zM804 862c-4-64-18-122-42-178l-6-16h-488l-6 16c-16 38-26 74-34 114-4 22-8 66-8 82v6h584zM586 406c48-20 102-70 140-126 12-16 40-72 44-84v-4h-516l2 4c0 2 6 16 12 30 22 46 44 76 76 110 30 30 54 50 86 66l14 8h68c60 0 66 0 74-4z" />
<glyph unicode="&#xe01f;" glyph-name="event-sign-off" data-tags="event-sign-off" d="M420 876c-158-36-278-144-326-296-16-50-20-82-16-150 2-64 8-92 28-142 44-110 134-200 238-242 64-24 84-28 166-28 60 0 82 2 102 8 164 44 278 156 322 322 12 38 10 166 0 204-44 164-156 278-318 320-44 12-148 14-196 4zM614 766c106-40 170-104 214-212 10-28 10-30 10-104s0-76-10-104c-44-108-106-170-214-214-28-10-30-10-104-10s-76 0-104 10c-108 44-172 108-212 214-10 24-12 36-14 88-2 70 2 94 22 138 22 52 38 76 74 112s60 52 112 74c44 20 58 22 132 20 60 0 68-2 94-12zM256 450v-62h508v124h-508z" />
<glyph unicode="&#xe020;" glyph-name="event-sign-off-undo" data-tags="event-sign-off-undo" d="M420 876c-158-36-278-144-326-296-16-50-20-82-16-150 2-64 8-92 28-142 44-110 134-200 238-242 64-24 84-28 166-28 60 0 82 2 102 8 164 44 278 156 322 322 12 38 10 166 0 204-44 164-156 278-318 320-44 12-148 14-196 4zM614 766c106-40 170-104 214-212 10-28 10-30 10-104s0-76-10-104c-44-108-106-170-214-214-28-10-30-10-104-10s-76 0-104 10c-108 44-172 108-212 214-10 24-12 36-14 88-2 70 2 94 22 138 22 52 38 76 74 112s60 52 112 74c44 20 58 22 132 20 60 0 68-2 94-12zM474 504c-110-80-202-148-206-150-4-6-2-16 8-28 2-2 16-20 30-40 18-24 30-36 34-34 10 2 408 292 408 296 0 6-68 98-72 100-2 0-92-64-202-144z" />
<glyph unicode="&#xe021;" glyph-name="mobile-siren" data-tags="mobile-siren" d="M490 900c-14-16-14-14-14-90 0-74 0-74 10-86 8-8 16-10 28-10 14 0 20 2 28 10 10 12 10 12 10 86 0 76 0 76-16 90-8 8-8 8-22 8s-16 0-24-8zM178 770c-10-4-20-16-22-26-6-22-2-30 54-84 48-48 52-52 68-50 18 4 30 16 34 32 4 10 4 10-2 22-6 10-14 22-50 56-26 28-46 46-52 48-8 4-22 4-30 2zM818 768c-4-2-28-24-52-50-46-44-52-54-52-66 0-14 12-32 24-38 8-2 26-2 34 0 8 4 92 92 96 100 12 20 2 46-18 56-8 4-24 2-32-2zM488 676c-38-4-62-12-90-26s-48-28-68-50c-44-44-70-92-80-148-2-16-2-32-2-130v-110h534v68c0 38 0 90-2 116-2 66-8 90-28 132-20 38-54 80-86 102-20 14-56 30-78 36-32 10-76 14-100 10zM530 594c14-8 18-16 20-32 0-8 0-12-4-20-6-12-14-16-38-20-10 0-22-4-26-4-16-4-32-14-46-26-22-22-32-44-36-80-4-16-4-22-10-28-8-12-16-16-30-16-8 0-12 0-18 6-12 8-16 20-16 38 0 52 26 108 66 142 32 26 78 44 116 44 8 0 14-2 22-4zM54 446c-12-2-22-10-28-18-2-4-4-6-4-6-2 0-2-28 0-30s4-6 8-10c2-4 8-8 12-10 8-6 8-6 74-6 64 0 68 2 76 6 12 6 18 18 20 32 0 20-6 30-22 40-6 2-12 2-66 4-34 0-66-2-70-2zM850 446c-24-4-34-18-34-42 2-14 8-26 22-32 6-4 10-6 74-6 66 0 68 0 74 6 4 2 10 8 14 12 2 4 6 8 6 8 2 0 2 28 0 30-20 26-16 24-88 26-34 0-64-2-68-2zM200 138c-26-4-48-20-58-44l-6-14-2-48v-48h760v42c0 48-2 56-12 76-8 12-22 24-32 30-6 2-14 4-22 6-16 2-610 2-628 0z" />
<glyph unicode="&#xe022;" glyph-name="cal-empty" data-tags="cal-empty" d="M256 956c-4-2-10-8-14-12l-6-10v-70c0-66 0-70 4-78 12-30 56-32 72-2 4 8 4 12 4 78s0 70-4 78c-2 4-8 10-12 14-10 8-32 8-44 2zM730 956c-8-4-12-8-18-16-4-8-4-14-4-78 0-60 2-70 4-76 8-16 18-24 36-24 14 0 26 6 34 18l6 8v146l-6 10c-4 4-10 10-14 12-10 6-30 6-38 0zM90 880c-40-10-76-44-86-86-6-18-6-754 0-770 10-42 42-74 86-86 14-4 830-4 846 0 42 12 74 44 84 86 4 10 4 52 4 386 0 320 0 374-4 384-8 32-32 62-62 76-24 10-34 12-86 12h-46v-46c0-54-2-62-16-80-16-20-38-30-62-30-22 0-36 6-52 20-22 20-26 36-26 98v38h-316v-38c0-62-4-78-26-98-40-36-100-24-122 26-6 10-6 12-6 60l-2 50h-48c-30 0-50-2-60-2zM944 326c0-246 0-278-2-286-6-10-12-16-22-20-8-4-22-4-408-4s-400 0-408 4c-10 4-16 10-22 20-2 8-2 40-2 286v278h864z" />
<glyph unicode="&#xe023;" glyph-name="cal-check" data-tags="cal-check" d="M256 956c-4-2-10-8-14-12l-6-10v-70c0-66 0-70 4-78 12-30 56-32 72-2 4 8 4 12 4 78s0 70-4 78c-2 4-8 10-12 14-10 8-32 8-44 2zM730 956c-8-4-12-8-18-16-4-8-4-14-4-78 0-60 2-70 4-76 8-16 18-24 36-24 14 0 26 6 34 18l6 8v146l-6 10c-4 4-10 10-14 12-10 6-30 6-38 0zM90 880c-40-10-76-44-86-86-6-18-6-754 0-770 10-42 42-74 86-86 14-4 830-4 846 0 42 12 74 44 84 86 4 10 4 52 4 386 0 320 0 374-4 384-8 32-32 62-62 76-24 10-34 12-86 12h-46v-46c0-54-2-62-16-80-16-20-38-30-62-30-22 0-36 6-52 20-22 20-26 36-26 98v38h-316v-38c0-62-4-78-26-98-40-36-100-24-122 26-6 10-6 12-6 60l-2 50h-48c-30 0-50-2-60-2zM944 326c0-246 0-278-2-286-6-10-12-16-22-20-8-4-22-4-408-4s-400 0-408 4c-10 4-16 10-22 20-2 8-2 40-2 286v278h864zM556 376l-94-92-42 42c-58 58-56 56-94 18l-24-26v-24l74-76 76-76h22l124 126 124 124v24l-14 16c-10 10-22 22-28 26-10 10-12 10-22 10h-10z" />
<glyph unicode="&#xe024;" glyph-name="cal-cross" data-tags="cal-cross" d="M256 956c-4-2-10-8-14-12l-6-10v-70c0-66 0-70 4-78 12-30 56-32 72-2 4 8 4 12 4 78s0 70-4 78c-2 4-8 10-12 14-10 8-32 8-44 2zM730 956c-8-4-12-8-18-16-4-8-4-14-4-78 0-60 2-70 4-76 8-16 18-24 36-24 14 0 26 6 34 18l6 8v146l-6 10c-4 4-10 10-14 12-10 6-30 6-38 0zM90 880c-40-10-76-44-86-86-6-18-6-754 0-770 10-42 42-74 86-86 14-4 830-4 846 0 42 12 74 44 84 86 4 10 4 52 4 386 0 320 0 374-4 384-8 32-32 62-62 76-24 10-34 12-86 12h-46v-46c0-54-2-62-16-80-16-20-38-30-62-30-22 0-36 6-52 20-22 20-26 36-26 98v38h-316v-38c0-62-4-78-26-98-40-36-100-24-122 26-6 10-6 12-6 60l-2 50h-48c-30 0-50-2-60-2zM944 326c0-246 0-278-2-286-6-10-12-16-22-20-8-4-22-4-408-4s-400 0-408 4c-10 4-16 10-22 20-2 8-2 40-2 286v278h864zM356 470c-20-20-24-26-24-32 0-4 8-12 58-62 48-50 56-60 56-64 0-6-8-14-56-64-50-50-58-58-58-64 0-4 4-10 22-28 34-34 26-36 96 34 48 46 58 56 64 56 4 0 14-10 62-56 70-70 62-68 94-36 32 34 36 26-36 96-34 36-56 60-56 62s22 26 56 62c72 70 70 62 36 96-20 18-26 24-30 24s-16-10-64-58c-48-50-58-58-62-58-6 0-16 8-64 58-50 50-58 58-64 58s-10-6-30-24z" />
<glyph unicode="&#xe025;" glyph-name="xml" data-tags="xml" d="M132 802c-58-8-106-50-126-106l-4-16v-466l4-14c14-40 42-72 80-90 36-18-4-18 426-18s392 0 428 18c36 18 64 50 78 90l6 14v466l-6 16c-14 40-42 72-78 90s4 16-420 18c-206 0-380-2-388-2zM188 560c10-20 20-42 24-50 4-10 8-16 8-16s4 8 8 18c4 10 14 32 22 50l14 32h78l-2-4c-2-4-20-34-40-68-20-36-36-66-38-68-2-4 2-14 40-80 24-40 44-74 44-74 0-2-18-2-38-2h-40l-26 52c-14 28-26 52-26 52s-8-14-14-32c-8-16-18-40-24-52l-10-20h-78l44 74 42 76-40 72c-22 38-40 72-42 72 0 2 18 2 38 2h40zM486 590c32-104 44-154 50-184 2-8 4-14 4-14 0 2 6 20 12 44 6 22 18 68 28 100l20 58h88v-14c2-16 16-270 16-278 0-4 0-4-32-4-26 0-34 0-34 2s-2 34-2 72c-2 38-4 82-4 100 0 16 0 36-2 42v12l-8-24c-4-14-18-64-34-112l-26-88h-54l-2 10c-24 86-54 198-54 210 0 10-4-4-4-18 0-6-2-54-4-108l-4-98h-64v12c2 6 6 72 10 148l8 136h46c42 0 46 0 46-4zM822 474l2-120h116v-56h-186v296h68z" />
<glyph unicode="&#xe026;" glyph-name="taf" data-tags="taf" d="M132 802c-58-8-106-50-126-106l-4-16v-466l4-14c14-40 42-72 80-90 36-18-4-18 426-18s392 0 428 18c36 18 64 50 78 90l6 14v466l-6 16c-14 40-42 72-78 90s4 16-420 18c-206 0-380-2-388-2zM378 566v-28h-80v-240h-68v240h-80v58h228zM596 448c24-80 46-146 46-148s-6-2-36-2h-36l-12 38-12 36-42 2h-42l-8-30c-4-18-8-34-10-38l-2-8h-34c-20 0-36 0-36 2s88 290 90 292c0 2 20 2 44 2h46zM874 566v-26h-56l-56-2-2-32v-34h108v-54h-54l-52-2-2-58v-60h-68v296h182zM498 520c-2-10-8-38-14-58l-12-38h32c16 0 32 0 32 0 0 2-4 16-8 32-6 18-14 44-16 58-4 14-8 26-8 28 0 0-4-10-6-22z" />
<glyph unicode="&#xe027;" glyph-name="emergency" data-tags="emergency" d="M170 848c-2 0-4-2-4-2-10 0-46-22-60-34-12-8-34-32-38-38-4-4-6-8-8-10s-4-6-6-8c0-4-2-8-6-12-2-4-4-10-4-12s-2-4-2-4c-2 0-2 0-2-2 2 0 0-4-2-8-2-8-4-10-6-34-8-44-12-124-8-158 4-32 4-32 6-46 2-6 2-14 2-16 2-2 4-14 6-24 2-8 4-18 4-20 2 0 2-4 4-8 0-2 4-10 6-18 0-6 4-16 6-24 4-6 4-12 4-12s0 0 2-2 2-4 2-4c-2 0-2-2 0-4 2 0 2-2 2-2-2 0-2-2 0-4 2-4 4-10 8-16 2-4 4-14 8-20 2-6 4-10 4-12s28-58 38-76c28-48 48-72 94-120 28-28 38-38 58-54 4-2 8-6 10-8s6-4 8-6c2 0 6-2 6-4 4-2 44-20 44-20 0 2 2 0 6 0 14-6 54-8 80-6 40 6 66 16 80 32 2 2 6 8 8 10 4 4 10 12 14 20 6 8 10 14 12 14 0 2 0 2 0 2-2 0-2 2 0 2 4 4 4 14 4 20-2 6-24 38-36 52-2 2-6 8-12 14-4 8-10 14-10 14s-6 8-10 14c-6 8-12 16-12 16s-4 6-8 12c-10 18-22 32-28 34-8 4-20 4-32-2-2 0-8-4-14-6-4-2-10-4-14-6-2-2-4-2-4-2 0 2-4-2-10-6-6-2-12-6-14-6 0 0-4-2-10-6-6-2-12-4-14-6-2 0-4 0-4 0s-4 0-8-2c-12 0-20 4-32 24-4 4-8 10-10 12-16 20-42 62-56 90-10 20-26 60-28 70-2 6-4 14-4 20-2 6-4 14-6 18 0 4-2 10-2 14-2 6-2 14-4 20 0 6-2 16-4 22 0 8 0 14-2 16-2 12-2 44 0 50 2 4 14 14 18 16 0 0 2 0 4 0 2 2 6 2 8 4 2 0 4 0 4 0 2 2 2 2 2 2s2 0 4 0c2 2 12 4 24 6 10 4 20 6 22 6 0 2 4 2 8 4 2 2 6 2 8 2 4 2 22 16 26 20 2 6 2 28-2 42-4 12-6 32-12 110-4 36-4 42-12 48-2 4-18 10-18 8 0 0-4 2-8 4-4 0-8 2-8 2s-2 0-6 0c-12 4-16 4-36 4-10 2-18 0-18 0zM882 678c-24-8-44-22-54-42-4-10-4-14-4-34s0-22 4-32c6-10 14-18 24-26 6-6 6-6 4-8-10-6-24-18-30-28-18-28-16-70 8-90 16-18 40-24 78-24 50 0 80 14 94 44 6 10 8 16 8 30 2 30-8 48-32 68l-12 8 14 12c18 20 26 42 22 66-6 30-22 48-54 54-16 4-54 4-70 2zM932 622c8-4 10-14 10-24-2-6-16-24-22-26-8-2-28 14-32 26 0 4-2 8 0 12 0 6 8 16 14 16 8 2 26 0 30-4zM926 502c6-4 14-10 16-14 10-12 6-30-6-38-10-4-34-4-44 0-14 8-16 28-4 42 4 6 22 18 24 18 0 0 6-4 14-8zM458 676c-4 0-58-34-66-40-6-6-8-12-8-28 0-12 0-14 6-20s10-4 34 8l18 10v-154h-24c-20 0-24 0-28-4-8-8-8-34-2-46l4-4h80c94 0 88-2 88 26s-2 28-30 28h-22v110c0 98 0 110-4 112-2 2-38 4-46 2zM682 676c-4 0-58-34-66-40-6-6-8-12-8-28 0-12 0-14 6-20s10-4 34 8l18 10v-154h-24c-20 0-24 0-28-4-8-8-8-34-2-46l4-4h80c94 0 88-2 88 26s-2 28-30 28h-22v110c0 98 0 110-4 112-2 2-38 4-46 2z" />
<glyph unicode="&#xe028;" glyph-name="meeting" data-tags="meeting" d="M492 828c-24-8-40-24-50-44-6-12-6-14-6-34s0-22 6-34c8-16 22-32 38-38 12-6 14-8 34-8s22 2 34 8c8 2 18 10 22 16 6 4 14 14 16 22 6 12 8 14 8 34s-2 22-8 34c-6 16-22 30-38 38-10 6-16 6-30 8-12 0-22-2-26-2zM502 638c-12-6-14-18-6-36l4-8-8-18-10-20-20 40c-18 40-20 40-26 42-6 0-24-4-32-10-12-8-24-24-60-76-42-66-42-66-34-92l6-14h-18c-26-2-26 0-46-70-8-30-18-62-22-72l-4-16-12 10c-28 26-48 50-66 84-6 10-14 22-16 26l-8 6h-36c-40 0-46-2-58-14-12-14-12-12-12-124v-102l8-6c2-4 8-8 12-10 4 0 28 0 52 0 42 0 46 2 50 4 8 8 12 20 18 52 2 18 6 32 6 32 2 0 32-24 40-30 0-2-4-14-10-32-16-54-20-76-16-98 2-10 4-14 8-18l6-6h322c244 0 322 0 326 2 8 4 10 12 10 38s0 30-16 78c-4 14-8 28-8 32 0 2 4 8 18 18 10 10 20 16 20 14 0 0 4-16 8-36 6-32 8-36 14-42l6-8h48c56 0 58 0 66 12 4 6 4 12 4 108v102l-6 10c-4 8-8 12-14 16l-10 6-38 2c-40 0-44 0-52-14-20-36-26-44-38-60-6-8-20-24-30-34l-20-18-6 22c-4 12-14 44-22 70-8 28-16 52-18 54-4 8-12 12-30 12-12 0-14 0-12 4 6 16 8 26 8 36-2 8-4 14-38 66-36 56-46 66-58 74-10 8-26 12-34 12-6-2-8-2-26-42l-20-40-10 20-8 18 4 8c2 4 4 10 4 18s-2 10-6 14c-6 4-20 6-28 4zM426 488l8-42h-20c-14 0-20 0-22 2-2 4-10 26-10 30s34 56 36 54c0 0 4-20 8-44zM630 506c18-28 18-28 10-46-4-12-10-14-32-14h-14l8 42c4 26 8 44 8 44 2-2 10-12 20-26zM326 410c2-2 8-12 12-24s10-24 12-26c12-12 36-14 50-2 10 10 14 28 8 46l-4 8h220l-2-8c-10-28 2-52 26-54 14 0 24 4 30 12 4 4 8 16 14 28 4 12 8 20 10 22 6 4 22 2 26-2 4-6 44-132 40-134 0-2-12-6-26-10-16-4-30-8-32-10-24-10-28-44-6-60 12-8 22-8 56 2 18 6 30 10 32 10 0 0 2-12 6-24l8-24h-146c-80 0-212 0-292 0h-146l8 24c4 12 6 24 6 24 2 0 14-4 32-10 24-6 30-8 40-8 18 2 30 16 30 34 0 12-4 18-12 26-6 6-8 8-40 18-14 4-26 8-26 8-4 2 36 132 40 136 4 2 22 2 26-2zM76 604c-22-8-40-24-50-44-6-12-6-14-6-34s0-22 6-34c8-16 22-32 38-38 12-6 14-8 34-8s22 2 34 8c18 8 32 22 38 38 6 12 8 14 8 34s-2 22-8 34c-8 18-20 30-38 38-12 6-14 6-32 8-10 0-22 0-24-2zM908 604c-24-8-40-24-50-44-6-12-6-14-6-34s0-22 6-34c8-16 22-32 38-38 12-6 14-8 34-8s22 2 34 8c8 2 18 10 22 16 6 4 14 14 16 22 6 12 8 14 8 34s-2 22-8 34c-6 16-22 30-38 38-10 6-16 6-30 8-12 0-22-2-26-2z" />
<glyph unicode="&#xe029;" glyph-name="course-1" data-tags="course-1" d="M28 888c-6-4-16-14-20-20-8-14-8-22-8-356s0-342 8-356c4-6 14-16 20-20 14-8 22-8 274-8h258v-78c0-42 0-78 2-78s30 18 62 40c32 22 62 40 64 40s32-18 64-40c32-22 60-40 62-40s2 36 2 78v78h84c92 0 100 2 116 28 8 14 8 22 8 356s0 342-8 356c-4 6-14 16-20 20-14 8-22 8-484 8s-470 0-484-8zM960 512v-320h-144v32c0 28 0 32 12 42 34 32 52 80 52 134 0 58-18 102-60 140-38 38-76 52-132 52-58 0-104-18-140-60-38-38-52-76-52-132 0-54 18-102 52-134 12-10 12-14 12-42v-32h-496v640h896zM724 520c50-14 88-64 88-120 0-50-26-90-70-112-64-32-140-4-170 66-24 52 0 124 52 152 30 20 62 24 100 14zM688 210c24 0 46 2 54 4l10 2v-120l-10 6c-8 4-22 14-32 22l-22 14-20-14c-12-8-26-18-32-22l-12-6v120l12-2c6-2 28-4 52-4zM160 720v-32h704v64h-704zM160 592v-32h256v64h-256z" />
<glyph unicode="&#xe02b;" glyph-name="general-activities" data-tags="general-activities" d="M322 918c-2-2-8-4-12-8l-6-8v-96c-2-106 0-110 12-116 10-6 78-6 88-2 16 6 16 10 16 110s0 104-16 114c-6 4-12 6-42 6-18 0-36 0-40 0zM268 840c-46-28-78-72-98-134-2-4-6-4-18-4h-14v-68h446v68h-30l-6 18c-12 34-30 64-58 90-16 16-46 40-52 40-2 0-2-34-4-78 0-74 0-78-6-86-12-16-18-18-66-18-50 0-58 2-68 20-6 8-6 14-8 86v78zM170 598c-10-12-14-24-12-44 0-22 10-36 28-46 12-6 12-6 18-30 22-90 100-148 178-132 64 14 114 66 130 138 4 18 4 18 14 20 24 6 40 28 40 54 0 18-6 32-14 42l-6 6h-370zM686 456l-8-44-10-4c-6-2-16-6-24-10l-14-6-76 52-30-30 26-40 26-38-6-12c-4-6-8-16-10-22-2-8-4-12-8-14-2 0-22-4-46-8l-42-8v-22c0-20 0-20 8-22 10-2 82-16 84-16 0 0 2-4 4-10s6-18 10-24l6-14-52-74 14-16c8-8 16-16 18-16 0 0 18 12 38 26l36 26 18-8c10-4 20-8 24-10 6-2 8-4 14-48l8-46h46l8 46c6 30 8 46 12 46 2 2 12 6 24 12l20 8 34-24c20-14 36-26 38-26 4 0 10 6 20 14l14 16-26 38-26 36 6 14c4 6 8 18 10 24s4 10 4 10c2 0 74 14 84 16 8 2 8 2 8 24 0 12-2 22-2 22-4 0-58 10-78 14-12 2-14 2-16 14-2 6-6 16-10 24l-6 12 52 76-14 14c-8 8-16 16-18 14-2 0-18-12-38-24-34-24-42-28-44-22-2 2-10 6-22 10l-18 6-8 46-8 44h-46zM748 312c12-6 26-22 32-36s4-40-2-54c-8-14-26-32-40-36-24-6-48-2-66 16-16 14-22 28-22 50 0 30 18 54 48 64 12 4 38 2 50-4zM456 342c-50-36-114-40-170-16-10 6-22 10-26 14s-8 6-10 6c-2 0-10-8-20-18l-20-16-50-2c-64 0-74-4-100-28-26-26-44-62-54-118-4-22-4-40-4-92 0-36 0-68 2-70 2-4 20-4 330-4 262 0 330 0 330 4 0 6-10 54-12 56s-8 4-12 6-10 4-50-22c-22-14-40-26-42-26s-64 62-64 64c0 2 12 22 28 46 14 26 28 46 28 46-2 6-10 10-52 16-24 6-48 10-52 10-6 2-6 2-6 52 0 38 2 50 4 52 2 0 18 4 38 6l36 6-18 18c-10 10-20 18-20 18s-6-2-14-8z" />
<glyph unicode="&#xe02d;" glyph-name="practice" data-tags="practice" d="M846 800c-16-8-22-34-12-50 6-10 16-14 30-14 20 0 32 14 32 34 0 14-4 24-16 30-10 4-24 6-34 0zM770 732c-4-2-8-8-10-12-8-20 4-38 28-38 10 0 18 4 24 14 6 12 0 32-12 38-8 4-22 2-30-2zM410 688c-16-6-34-24-40-40s-4-42 2-56c8-16 18-28 34-34 12-6 14-8 32-8 16 0 20 2 30 6 16 8 28 20 36 36 4 10 6 14 6 30 0 20-2 22-6 32-8 16-24 30-38 36-18 6-40 6-56-2zM712 666c-6-6-10-14-6-24 4-8 8-12 20-12 6 0 10 2 14 6 6 4 6 6 6 14s0 12-6 16c-8 8-18 8-28 0zM946 650c-10-8-14-16-14-30s6-24 18-30c12-6 22-6 32 0 12 6 18 20 18 34-2 12-6 18-16 26-10 6-28 6-38 0zM670 616c-8-2-10-8-10-16 0-20 30-18 30 2 0 10-10 18-20 14zM856 616c-14-2-20-12-20-28 0-8 2-12 6-18 6-6 8-6 18-8 18-2 30 10 30 28 0 10-4 18-10 22s-18 6-24 4zM766 584c-6-8-8-16-2-26 2-8 8-10 18-10 6 0 10 2 14 6 6 4 6 6 6 14s0 12-6 16c-8 8-20 8-30 0zM702 562c-6-4-4-18 0-22 2-2 6-4 10-4 10 0 16 6 16 14 0 10-6 16-16 16-4 0-8-2-10-4zM346 550c-30-10-40-22-64-90-6-18-14-34-14-36s-20-12-42-22c-104-48-134-66-166-102-24-28-34-52-36-84 0-24 2-40 12-62 10-20 34-58 38-60 6-4 18-2 22 2 6 4 6 6 6 12 0 8-2 12-12 26-22 34-28 54-28 80 2 20 6 34 20 52 24 30 88 72 158 102 22 10 108 42 112 42 0 0 10-14 20-32 30-48 28-48 90-14 68 38 76 44 80 50 8 18-4 40-24 40-2 0-26-8-52-18l-46-16-4 4c-2 2-4 6-2 6 0 0 26 10 58 18 32 10 58 20 58 20 2 0 0 10-2 18-6 14-6 18-10 18-8-4-78-24-80-26 0 0-2 4-2 10-4 36-32 62-66 62-8 2-18 0-24 0zM632 548c0-2-2-4-2-8 0-2-2-4-6-4-4-2-66-12-72-12-2 0-6 0-6 4-6 10-20 10-20 0 0-8 22-74 26-78 6-8 14-4 14 10 0 4 2 6 38 24 34 16 38 18 40 14s10-6 14 0c4 2 4 4-4 32-6 18-8 18-12 20-4 0-8-2-10-2zM714 494c-2-2-4-6-4-10 0-2 2-6 4-8 4-4 6-6 12-6s8 2 12 6c2 2 4 6 4 8 0 4-2 8-4 10-4 4-6 6-12 6s-8-2-12-6zM788 498c-8-4-12-10-12-20 0-12 8-20 22-20 16 0 24 16 18 30-4 10-20 14-28 10zM866 494c-10-6-16-20-12-32 6-20 34-26 48-10 10 14 8 34-6 42-8 4-24 6-30 0zM952 494c-12-8-16-16-16-30s4-22 16-30c10-6 28-6 38 2 20 16 18 48-4 58-8 6-26 4-34 0zM304 380c-22-10-40-20-40-20-4-6 2-74 8-100 4-16 12-96 12-98-2 0-28-6-60-12s-60-10-62-12c-2 0-6-2-8-6-12-12-8-32 4-40 10-6 12-6 98 2 76 6 76 6 84 18 2 2 10 28 16 62 16 62 16 64 18 64 12 0 86 0 88-2 2 0 14-26 28-58 14-30 28-58 32-62 8-8 18-10 30-6 10 4 14 12 14 24 0 8-46 168-52 182-6 12-12 12-68 14-48 0-52 2-58 6-2 2-12 14-20 30-16 28-20 32-22 32s-20-8-42-18z" />
<glyph unicode="&#xe900;" glyph-name="grant-permission" data-tags="grant-permission" d="M226 821.8c-2.8-0.8-8.8-2.6-13.6-4s-11.6-5.2-15.4-8.6c-3.6-3.4-8.4-7.6-10.4-9.2-4.2-3.4-11.4-14-9.4-14 0.6 0-0.2-2.4-2.2-5.2-5.2-8-4.8-35.2 0.8-46.8 7.6-16.4 12-22.6 21.6-31l9.6-8.4-9.4-9.4c-5.2-5-8.8-9.2-8-9.2 0.6 0-1.8-2.4-5.6-5.4-3.6-3.2-9-8.2-11.8-11.4s-14-14.8-24.6-25.8c-17-17.4-19.6-20.8-20.8-28.6-2.2-15.4 0.2-21.8 14.8-37.2 9.4-10 13.6-13.2 14-10.8 0.6 2.8 5.4 3.2 43.6 3.2h42.8v-89.2l7.6-7.4c4.2-4.2 9.8-8 12.6-8.6 8.2-1.8 19.8-2 19.8-0.4 0 0.8 1.4 1 3 0.4 1.8-0.8 7.6 3.6 16 12.4 7.2 7.4 13 14.2 13 15.2 0 0.8 1.2 1.6 2.6 1.6 1.2 0 6.4 4.6 11.4 10.4 10.6 12.2 39.8 41.6 41.2 41.6 0.4 0 30-28 65.4-62.4 35.4-34.2 64.6-62.4 65-62.8 0.4-0.2-1-3.8-2.8-8-9-20.8-12.6-34.4-16.4-61-2-12.6 0.6-60 3.2-65.4 1-1.8 2.4-6.6 3.2-10.4 2-12 12.6-37 21.4-51.4 4.6-7.4 9.6-15.8 11-18.6 3-5.6 38-42.8 35.6-38-0.8 1.6 1.6 0.2 5.4-3.2 7.4-7 21-15.8 31.8-21 18.6-8.8 26-12 29.8-12.8 2.4-0.4 5.2-1.4 6.6-2.2s4.2-1.8 6.6-2c2.2-0.2 6.8-1 10-1.8 11.4-2.4 16-3.2 26-4 14.2-1.2 28.8-1.2 37 0 3.8 0.6 10.2 1.6 14 2 3.8 0.6 9.4 1.4 12.2 1.8 5.4 0.8 23.4 6.4 31.8 9.8 2.8 1.2 5.6 2 6.6 1.8 0.8-0.2 1.4 0.6 1.4 1.8 0 1 1 1.4 2 0.8 1.2-0.6 2-0.4 2 0.6s4.8 3.8 10.6 6.6c5.6 2.6 11.6 6 13 7.2 1.4 1.4 3.4 2.6 4.2 2.6s6 4 11.4 9c5.4 5 11 9 12.4 9s2.2 0.8 1.6 1.6c-0.4 0.8 3 5.4 8 10.2 5 4.6 11.2 12.2 14.2 16.8 2.8 4.4 6.8 9.8 8.8 12 4 4.2 15.8 28 19.8 39.4 1.4 3.8 3.2 8.8 4 11 9.8 24.4 11.8 76 4 108.2-7.6 32.2-18.4 56.8-33.8 76.8-2.8 3.8-5.6 7.8-6.2 9-3.2 6.8-52.2 49-57 49-0.8 0-4 1.8-7.2 4.2-3.2 2.2-5.8 3.4-5.8 2.6 0-0.6-1.2-0.4-2.4 0.8-3 2.2-26.6 12.4-32 13.6-2 0.4-5.6 1.4-8 2-2.6 0.6-7.2 1.6-10.6 2-3.2 0.6-9.2 1.8-13 2.6-10 2-53.2 0.8-64-1.6-5-1.2-11.4-2.6-14.4-3.2-3-0.4-7.2-1.8-9.4-2.8-2.2-1.2-5.8-2.2-8-2.2-2.4 0-9.8-2.6-16.4-5.8l-12.4-5.8-149 144.2c-148.4 144-174.6 168.6-179 169-1.4 0-4.6 0.6-7.4 1.4-2.8 0.6-8.2 1.8-12 2.2-3.8 0.6-7.8 1.2-9 1.6-1 0.2-4.2-0.2-7-1zM705.6 393.2c2.4-0.6 6.4-1.6 8.6-2.2 2.4-0.4 5.8-2.2 7.8-4 1.8-1.6 3.8-2.4 4.6-1.8 2.4 2.4 26.6-24 31.4-34.2 5.6-12.2 7.8-38.4 4-50.2-3.6-11.6-10.8-26.8-12.4-26.8-1 0-1.6-1-1.6-2 0-2.6-10-13-10-10.6 0 0.8-0.8 0.6-1.6-0.4-1.8-2.8-20.4-15-23.2-15.2-1.2-0.2-4.4-0.8-7.2-1.2-12.8-2.4-35.2-1.8-39.8 1-3.4 2-4.2 2.2-3 0.2 0.8-1.4-1.2-0.6-4.6 1.8s-6.4 3.8-7 3.4c-0.4-0.6-6.8 4.2-14.2 10.2-18.6 15.4-26 30.8-26.2 53.8 0 30.2 7.8 46.6 31.8 66.6 1.6 1.4 3 1.8 3 1s0.8-0.4 1.6 0.8c0.8 1.4 6.8 4.6 13 7.2 8.8 3.6 14.8 4.6 25.8 4.2 8-0.2 16.6-0.8 19.2-1.6z" />
<glyph unicode="&#xe901;" glyph-name="transfer" data-tags="transfer" d="M707 832.6c-10-2.4-17.4-7.6-22-15.6-5-8.4-5-8.4-5-63.4v-55.2l-4.4-1.2c-2.6-0.6-58.6-1.2-124.6-1.2h-120l-8-4.6c-22.8-12.6-21.8-48.2 1.6-61 5.8-3.2 17.6-3.4 149-4 93.2-0.4 145.2 0.2 150.2 1.6 4.2 1 10 3.8 13 6.2 10 7.8 11.8 14.6 13 45.4l1.2 28.4 148-148-23-23.4c-12.6-13-46-46.8-74-75.2l-51-51.6-1.2 28.6c-1 30.2-2.8 36.4-12.2 44.8-2.4 2.4-7.6 5.2-11.4 6.6-4.8 1.6-60 2.2-196.4 2.2h-189.8v54.6c0 52.6-0.2 54.8-4.4 63.4-8.2 16-30.6 22.8-47.2 14.2-4-2.2-62.4-59-130.8-127.6-128.4-128.8-127.6-128-127.6-143.6 0.2-11.6 10-22.4 132.2-144.4 107.2-106.8 126-124.6 133.2-126.6 16-4.8 32.4 2.6 40.2 18 4.2 8.6 4.4 10.8 4.4 62.2v53.4l7.6 1.4c4 0.8 52.4 1.2 107.4 1 139-0.6 133-0.8 141.2 4.6 10.8 7.2 15.8 16.4 15.8 28.8 0 15-4.6 23.6-15.8 30.2l-9.2 5.4-141.6 0.6c-94.6 0.4-144.2-0.2-149.4-1.6-9.8-2.6-19.8-10.8-23.2-19.4-2-4.4-2.8-15.2-2.8-34v-27.6l-150 150 74.4 74.6 74.6 74.4 1-29.4c1.2-34.6 3.4-40.8 18-48l8.8-4.6h383.2v-56.8c0-55.4 0-56.8 4.6-63.2 7.2-10.8 14-14.6 27.2-15.6 10.2-0.8 13.4-0.2 20.6 4.2 10.8 6.4 248 244 252.4 252.8 4.4 8.6 4 23.2-0.6 32.2-2.2 4-59 62.4-127.6 130.8-105.8 105.6-124.8 123.6-131.6 125.4-8.4 2.2-11.2 2.4-18 0.8z" />
</font>
</defs>
</svg>
